<svg height="480pt" viewBox="-11 0 480 480.05003" width="480pt" xmlns="http://www.w3.org/2000/svg"><path d="m456.09375 306.394531-45.253906-45.257812c-3.125-3.121094-8.1875-3.121094-11.3125 0l-45.257813 45.257812c-3.03125 3.136719-2.988281 8.128907.097657 11.214844 3.085937 3.085937 8.078124 3.128906 11.214843.097656l31.601563-31.601562v9.945312c-.148438 89.574219-70.527344 163.292969-160 167.589844v-255.589844h56c4.417968 0 8-3.582031 8-8s-3.582032-8-8-8h-56v-64.554687c33.523437-4.222656 57.988281-33.78125 55.875-67.503906-2.117188-33.722657-30.085938-59.992188-63.875-59.992188-33.789063 0-61.757813 26.269531-63.875 59.992188-2.117188 33.722656 22.347656 63.28125 55.875 67.503906v64.554687h-56c-4.417969 0-8 3.582031-8 8s3.582031 8 8 8h56v255.589844c-89.472656-4.296875-159.851563-78.015625-160-167.589844v-9.945312l31.597656 31.601562c3.140625 3.03125 8.128906 2.988281 11.214844-.097656 3.085937-3.085937 3.128906-8.078125.097656-11.214844l-45.253906-45.257812c-3.125-3.121094-8.1875-3.121094-11.3125 0l-45.257813 45.257812c-3.03125 3.136719-2.988281 8.128907.097657 11.214844 3.085937 3.085937 8.078124 3.128906 11.214843.097656l31.601563-31.601562v9.945312c0 101.621094 82.378906 184 184 184s184-82.378906 184-184v-9.945312l31.597656 31.601562c3.140625 3.03125 8.128906 2.988281 11.214844-.097656 3.085937-3.085937 3.128906-8.078125.097656-11.214844zm-274.910156-242.34375c0-26.511719 21.488281-48 48-48 26.507812 0 48 21.488281 48 48 0 26.507813-21.492188 48-48 48-26.5-.027343-47.972656-21.503906-48-48zm0 0" fill="#509dd9"/></svg>