<svg height="480pt" viewBox="0 0 480 480" width="480pt" xmlns="http://www.w3.org/2000/svg"><g fill="#9bc9ff"><path d="m32 344h80v128h-80zm0 0"/><path d="m144 248h80v224h-80zm0 0"/><path d="m256 152h80v320h-80zm0 0"/><path d="m368 56h80v416h-80zm0 0"/></g><path d="m456 464v-408c0-4.417969-3.582031-8-8-8h-80c-4.417969 0-8 3.582031-8 8v408h-16v-312c0-4.417969-3.582031-8-8-8h-80c-4.417969 0-8 3.582031-8 8v312h-16v-216c0-4.417969-3.582031-8-8-8h-80c-4.417969 0-8 3.582031-8 8v216h-16v-120c0-4.417969-3.582031-8-8-8h-80c-4.417969 0-8 3.582031-8 8v120h-24v16h480v-16zm-416 0v-112h64v112zm112 0v-208h64v208zm112 0v-304h64v304zm112 0v-400h64v400zm0 0" fill="#1e81ce"/><path d="m69.65625 245.65625 218.34375-218.34375v44.6875h16v-72h-72v16h44.6875l-218.34375 218.34375zm0 0" fill="#1e81ce"/></svg>