<svg height="480pt" viewBox="0 0 480 480" width="480pt" xmlns="http://www.w3.org/2000/svg"><g fill="#9bc9ff"><path d="m8 344h464v16c0 17.671875-14.328125 32-32 32h-400c-17.671875 0-32-14.328125-32-32zm0 0"/><path d="m256 40v120h120c0-66.273438-53.726562-120-120-120zm0 0"/><path d="m224 72c-66.273438 0-120 53.726562-120 120s53.726562 120 120 120 120-53.726562 120-120h-120zm0 0"/></g><path d="m440 0h-400c-22.082031.0273438-39.9726562 17.917969-40 40v320c.0273438 22.082031 17.917969 39.972656 40 40h148.183594l-25.597656 64h-50.585938c-4.417969 0-8 3.582031-8 8s3.582031 8 8 8h256c4.417969 0 8-3.582031 8-8s-3.582031-8-8-8h-50.585938l-25.597656-64h148.183594c22.082031-.027344 39.972656-17.917969 40-40v-320c-.027344-22.082031-17.917969-39.9726562-40-40zm-400 16h400c13.253906 0 24 10.746094 24 24v296h-448v-296c0-13.253906 10.746094-24 24-24zm260.183594 448h-120.367188l25.597656-64h69.171876zm139.816406-80h-400c-13.253906 0-24-10.746094-24-24v-8h448v8c0 13.253906-10.746094 24-24 24zm0 0" fill="#1e81ce"/><path d="m224 320c70.65625-.082031 127.917969-57.34375 128-128 0-4.417969-3.582031-8-8-8h-112v-112c0-4.417969-3.582031-8-8-8-70.691406 0-128 57.308594-128 128s57.308594 128 128 128zm-8-239.59375v111.59375c0 4.417969 3.582031 8 8 8h111.59375c-4.238281 59.613281-54.558594 105.378906-114.304688 103.96875-59.746093-1.414062-107.84375-49.511719-109.257812-109.257812-1.410156-59.746094 44.355469-110.066407 103.96875-114.304688zm0 0" fill="#1e81ce"/><path d="m256 168h120c4.417969 0 8-3.582031 8-8-.082031-70.65625-57.34375-127.917969-128-128-4.417969 0-8 3.582031-8 8v120c0 4.417969 3.582031 8 8 8zm8-119.71875c55.519531 4.050781 99.667969 48.199219 103.71875 103.71875h-103.71875zm0 0" fill="#1e81ce"/></svg>