<svg height="483.03829pt" viewBox="0 0 483.03829 483.03829" width="483.03829pt" xmlns="http://www.w3.org/2000/svg"><path d="m376 140.957031-127.199219 127.203125-66.878906 32.957032 32.957031-66.878907 161.121094-161.121093v-62.078126h-368v464h368zm0 0" fill="#9bc9ff"/><path d="m480.695312 36.261719-33.917968-33.917969c-3.125-3.125-8.1875-3.125-11.3125 0l-51.464844 51.460938v-42.765626c0-4.417968-3.582031-8-8-8h-368c-4.417969 0-8 3.582032-8 8v464c0 4.417969 3.582031 8 8 8h368c4.417969 0 8-3.582031 8-8v-330.769531l96.695312-96.695312c3.125-3.125 3.125-8.1875 0-11.3125zm-112.695312 430.777343h-352v-448h352v50.765626l-158.777344 158.777343c-.621094.617188-1.132812 1.332031-1.519531 2.121094l-32.960937 66.878906c-1.511719 3.074219-.902344 6.769531 1.523437 9.191407.695313.671874 1.507813 1.214843 2.398437 1.601562.273438.105469.554688.199219.839844.269531.621094.207031 1.261719.332031 1.910156.378907.179688 0 .347657.101562.523438.101562s.253906-.085938.390625-.09375c1.085937-.023438 2.152344-.273438 3.136719-.730469l66.878906-32.957031c.789062-.386719 1.503906-.898438 2.121094-1.519531l113.535156-113.554688zm-123.921875-205.472656-44.574219 21.96875 21.96875-44.578125 185.726563-185.726562 22.609375 22.609375zm197.042969-197.039062-22.609375-22.609375 22.609375-22.609375 22.605468 22.609375zm0 0" fill="#1e81ce"/></svg>