<svg height="480pt" viewBox="-40 0 480 480" width="480pt" xmlns="http://www.w3.org/2000/svg"><path d="m248 432v-31.558594s-96-.441406-96 0v31.558594zm0 0" fill="#9bc9ff"/><path d="m248 338.527344c-.15625-11.199219 5.695312-21.625 15.335938-27.328125 50.425781-28.707031 75.230468-87.75 60.441406-143.859375-14.789063-56.109375-65.472656-95.25-123.496094-95.375-58.027344-.125-108.878906 38.800781-123.90625 94.847656-15.03125 56.046875 9.523438 115.191406 59.824219 144.117188 9.824219 5.695312 15.851562 16.210937 15.800781 27.566406v29.503906h96zm-117.257812-119.785156 45.257812 45.257812 90.511719-90.511719-90.511719 90.511719zm117.257812 117.257812-96-.230469zm0 0" fill="#9bc9ff"/><path d="m248 400.441406v-32.441406h-96v32.441406c0-.441406 96 0 96 0zm0 0" fill="#9bc9ff"/><path d="m200 472c17.671875 0 32-14.328125 32-32v-8h-64v8c0 17.671875 14.328125 32 32 32zm0 0" fill="#9bc9ff"/><g fill="#1e81ce"><path d="m200 48c-4.417969 0-8-3.582031-8-8v-32c0-4.417969 3.582031-8 8-8s8 3.582031 8 8v32c0 4.417969-3.582031 8-8 8zm0 0"/><path d="m120 69.441406c-2.859375 0-5.503906-1.523437-6.9375-4l-16-27.722656c-2.171875-3.820312-.851562-8.683594 2.957031-10.882812 3.808594-2.195313 8.675781-.910157 10.902344 2.882812l16 27.722656c1.425781 2.472656 1.425781 5.519532 0 7.996094-1.425781 2.472656-4.066406 4-6.921875 4.003906zm0 0"/><path d="m61.433594 128c-1.40625.003906-2.785156-.367188-4-1.070312l-27.722656-16c-3.792969-2.226563-5.078126-7.09375-2.882813-10.902344 2.199219-3.808594 7.0625-5.128906 10.882813-2.957032l27.722656 16c3.132812 1.8125 4.664062 5.503907 3.726562 9-.9375 3.496094-4.109375 5.929688-7.726562 5.929688zm0 0"/><path d="m40 208h-32c-4.417969 0-8-3.582031-8-8s3.582031-8 8-8h32c4.417969 0 8 3.582031 8 8s-3.582031 8-8 8zm0 0"/><path d="m33.726562 304c-3.621093 0-6.789062-2.433594-7.726562-5.929688-.9375-3.496093.59375-7.1875 3.726562-9l27.722657-16c2.476562-1.449218 5.539062-1.464843 8.03125-.035156 2.488281 1.429688 4.019531 4.085938 4.011719 6.957032-.003907 2.871093-1.546876 5.515624-4.042969 6.9375l-27.722657 16c-1.214843.703124-2.59375 1.074218-4 1.070312zm0 0"/><path d="m366.273438 304c-1.40625.003906-2.785157-.367188-4-1.070312l-27.722657-16c-2.496093-1.421876-4.039062-4.066407-4.042969-6.9375-.007812-2.871094 1.523438-5.527344 4.011719-6.957032 2.492188-1.429687 5.554688-1.414062 8.03125.035156l27.722657 16c3.132812 1.8125 4.664062 5.503907 3.726562 9-.9375 3.496094-4.105469 5.929688-7.726562 5.929688zm0 0"/><path d="m392 208h-32c-4.417969 0-8-3.582031-8-8s3.582031-8 8-8h32c4.417969 0 8 3.582031 8 8s-3.582031 8-8 8zm0 0"/><path d="m338.566406 128c-3.617187 0-6.789062-2.433594-7.726562-5.929688-.9375-3.496093.59375-7.1875 3.726562-9l27.722656-16c2.476563-1.449218 5.539063-1.464843 8.03125-.035156 2.488282 1.429688 4.019532 4.085938 4.011719 6.957032-.003906 2.871093-1.546875 5.515624-4.042969 6.9375l-27.722656 16c-1.214844.703124-2.59375 1.074218-4 1.070312zm0 0"/><path d="m280 69.441406c-2.855469-.003906-5.496094-1.53125-6.921875-4.003906-1.425781-2.476562-1.425781-5.523438 0-7.996094l16-27.722656c2.226563-3.792969 7.09375-5.078125 10.902344-2.882812 3.808593 2.199218 5.128906 7.0625 2.957031 10.882812l-16 27.722656c-1.433594 2.476563-4.078125 4-6.9375 4zm0 0"/><path d="m200 48c-4.417969 0-8-3.582031-8-8v-32c0-4.417969 3.582031-8 8-8s8 3.582031 8 8v32c0 4.417969-3.582031 8-8 8zm0 0"/><path d="m120 69.441406c-2.859375 0-5.503906-1.523437-6.9375-4l-16-27.722656c-2.171875-3.820312-.851562-8.683594 2.957031-10.882812 3.808594-2.195313 8.675781-.910157 10.902344 2.882812l16 27.722656c1.425781 2.472656 1.425781 5.519532 0 7.996094-1.425781 2.472656-4.066406 4-6.921875 4.003906zm0 0"/><path d="m40 208h-32c-4.417969 0-8-3.582031-8-8s3.582031-8 8-8h32c4.417969 0 8 3.582031 8 8s-3.582031 8-8 8zm0 0"/><path d="m392 208h-32c-4.417969 0-8-3.582031-8-8s3.582031-8 8-8h32c4.417969 0 8 3.582031 8 8s-3.582031 8-8 8zm0 0"/><path d="m206.863281 64.167969c-37.214843-1.878907-73.570312 11.589843-100.574219 37.265625-27.003906 25.675781-42.289062 61.304687-42.289062 98.566406.070312 48.652344 26.0625 93.582031 68.207031 117.886719 7.328125 4.273437 11.824219 12.128906 11.792969 20.609375v93.503906c0 4.417969 3.582031 8 8 8h8c0 22.089844 17.910156 40 40 40s40-17.910156 40-40h8c4.417969 0 8-3.582031 8-8v-93.472656c-.15625-8.316406 4.148438-16.082032 11.289062-20.351563 52.511719-29.902343 78.992188-90.867187 65.007813-149.65625-13.984375-58.789062-65.082031-101.296875-125.433594-104.351562zm33.136719 279.832031v16h-80v-16zm-80 32h80v16h-80zm40 88c-13.253906 0-24-10.746094-24-24h48c0 13.253906-10.746094 24-24 24zm-40-40v-16h80v16zm99.375-119.726562c-8.933594 5.179687-15.414062 13.726562-17.992188 23.726562l-82.863281-.199219c-2.75-10.035156-9.335937-18.582031-18.335937-23.800781-37.183594-21.441406-60.121094-61.078125-60.183594-104 0-32.878906 13.492188-64.320312 37.320312-86.972656 23.832032-22.65625 55.914063-34.539063 88.75-32.875 53.246094 2.703125 98.324219 40.210937 110.660157 92.078125 12.335937 51.867187-11.027344 105.65625-57.355469 132.042969zm0 0"/><path d="m176 272c-2.121094 0-4.15625-.84375-5.65625-2.34375l-45.253906-45.257812c-3.035156-3.136719-2.992188-8.128907.09375-11.214844 3.085937-3.085938 8.078125-3.128906 11.214844-.09375l39.601562 39.597656 84.847656-84.855469c3.125-3.125 8.195313-3.125 11.320313 0s3.125 8.195313 0 11.320313l-90.511719 90.503906c-1.5 1.5-3.535156 2.34375-5.65625 2.34375zm0 0"/></g></svg>