<svg height="480pt" viewBox="0 0 480 480" width="480pt" xmlns="http://www.w3.org/2000/svg"><path d="m472 8h-464v80h464zm-136 48c-4.417969 0-8-3.582031-8-8s3.582031-8 8-8 8 3.582031 8 8-3.582031 8-8 8zm48 0c-4.417969 0-8-3.582031-8-8s3.582031-8 8-8 8 3.582031 8 8-3.582031 8-8 8zm48 0c-4.417969 0-8-3.582031-8-8s3.582031-8 8-8 8 3.582031 8 8-3.582031 8-8 8zm0 0" fill="#9bc9ff"/><path d="m392 48c0 4.417969-3.582031 8-8 8s-8-3.582031-8-8 3.582031-8 8-8 8 3.582031 8 8zm0 0" fill="#9bc9ff"/><path d="m440 48c0 4.417969-3.582031 8-8 8s-8-3.582031-8-8 3.582031-8 8-8 8 3.582031 8 8zm0 0" fill="#9bc9ff"/><path d="m344 48c0 4.417969-3.582031 8-8 8s-8-3.582031-8-8 3.582031-8 8-8 8 3.582031 8 8zm0 0" fill="#9bc9ff"/><g fill="#1e81ce"><path d="m472 0h-464c-4.417969 0-8 3.582031-8 8v464c0 4.417969 3.582031 8 8 8h464c4.417969 0 8-3.582031 8-8v-464c0-4.417969-3.582031-8-8-8zm-456 16h448v64h-448zm448 448h-448v-368h448zm0 0"/><path d="m400 48c0 8.835938-7.164062 16-16 16s-16-7.164062-16-16 7.164062-16 16-16 16 7.164062 16 16zm0 0"/><path d="m448 48c0 8.835938-7.164062 16-16 16s-16-7.164062-16-16 7.164062-16 16-16 16 7.164062 16 16zm0 0"/><path d="m352 48c0 8.835938-7.164062 16-16 16s-16-7.164062-16-16 7.164062-16 16-16 16 7.164062 16 16zm0 0"/><path d="m324.519531 371.480469c3.125 3.121093 8.1875 3.121093 11.3125 0l85.824219-85.824219c3.121094-3.125 3.121094-8.1875 0-11.3125l-85.824219-85.824219c-2.007812-2.078125-4.984375-2.914062-7.78125-2.179687-2.796875.730468-4.980469 2.914062-5.710937 5.710937-.734375 2.796875.101562 5.773438 2.179687 7.78125l80.167969 80.167969-80.167969 80.167969c-3.121093 3.125-3.121093 8.1875 0 11.3125zm0 0"/><path d="m144.167969 371.480469c2.007812 2.078125 4.984375 2.914062 7.78125 2.179687 2.796875-.730468 4.980469-2.914062 5.710937-5.710937.734375-2.796875-.101562-5.773438-2.179687-7.78125l-80.167969-80.167969 80.167969-80.167969c2.078125-2.007812 2.914062-4.984375 2.179687-7.78125-.730468-2.796875-2.914062-4.980469-5.710937-5.710937-2.796875-.734375-5.773438.101562-7.78125 2.179687l-85.824219 85.824219c-3.121094 3.125-3.121094 8.1875 0 11.3125zm0 0"/><path d="m208.65625 426.824219c.679688.179687 1.378906.269531 2.078125.273437 3.621094-.003906 6.785156-2.433594 7.722656-5.929687l74.542969-278.191407c1.144531-4.269531-1.386719-8.65625-5.65625-9.800781s-8.65625 1.386719-9.800781 5.65625l-74.542969 278.191407c-1.144531 4.269531 1.386719 8.65625 5.65625 9.800781zm0 0"/></g></svg>