<svg height="480pt" viewBox="0 -72 480 480" width="480pt" xmlns="http://www.w3.org/2000/svg"><path d="m8 8.03125v320h464v-320l-232 160zm0 0" fill="#9bc9ff"/><path d="m240 168.03125 232-160h-464zm0 0" fill="#9bc9ff"/><path d="m479.847656 7.230469c-.054687-.539063-.160156-1.078125-.320312-1.597657-.160156-.519531-.375-1.015624-.640625-1.488281-.125-.222656-.152344-.488281-.300781-.703125-.152344-.21875-.347657-.304687-.496094-.488281-.359375-.421875-.757813-.804687-1.195313-1.144531-.378906-.304688-.785156-.574219-1.214843-.800782-.445313-.230468-.914063-.414062-1.398438-.550781-.523438-.15625-1.058594-.261719-1.601562-.320312-.238282 0-.449219-.136719-.695313-.136719h-463.984375c-.242188.0351562-.484375.0820312-.71875.144531-.523438.050781-1.035156.15625-1.539062.3125-.496094.140625-.976563.328125-1.4375.558594-.421876.230469-.820313.5-1.191407.800781-.441406.339844-.84375.726563-1.203125 1.152344-.148437.183594-.359375.289062-.496094.488281-.132812.199219-.175781.480469-.300781.703125-.265625.472656-.480469.96875-.640625 1.488282-.160156.519531-.265625 1.058593-.320312 1.597656 0 .265625-.152344.496094-.152344.800781v319.984375c0 4.417969 3.582031 8 8 8h464c4.417969 0 8-3.582031 8-8v-320c0-.269531-.128906-.503906-.152344-.800781zm-33.542968 8.800781-206.304688 142.28125-206.304688-142.28125zm-430.304688 304v-296.757812l219.457031 151.34375c2.734375 1.886718 6.351563 1.886718 9.085938 0l219.457031-151.34375v296.757812zm0 0" fill="#1e81ce"/></svg>