<svg height="479pt" viewBox="0 0 479 479.84857" width="479pt" xmlns="http://www.w3.org/2000/svg"><g fill="#9bc9ff"><path d="m255.386719 135.847656c-30.003907.167969-59.886719-3.8125-88.796875-11.832031-10.308594 32.265625-15.4375 65.960937-15.203125 99.832031h104zm0 0"/><path d="m255.386719 135.847656v88h104c.238281-33.871094-4.894531-67.566406-15.199219-99.832031-28.914062 8.019531-58.796875 12-88.800781 11.832031zm0 0"/><path d="m255.386719 7.847656c-79.199219.003906-152.046875 43.351563-189.828125 112.957032-37.78125 69.609374-34.441406 154.308593 8.710937 220.722656l-65.839843 130.320312 133.757812-64.078125c77.964844 48.015625 177.734375 41.65625 248.96875-15.871093 71.238281-57.523438 98.464844-153.714844 67.949219-240.042969-30.519531-86.328125-112.152344-144.035157-203.71875-144.007813zm104 216c.238281 33.871094-4.894531 67.566406-15.199219 99.832032 20.195312 5.414062 39.488281 13.742187 57.28125 24.722656-17.792969-10.980469-37.085938-19.308594-57.28125-24.722656-11.101562 33.503906-27.527344 60.3125-47.199219 76.167968 19.648438-15.863281 36.070313-42.671875 47.152344-76.175781-28.898437-8.011719-58.765625-11.988281-88.753906-11.824219-30.003907-.167968-59.886719 3.8125-88.796875 11.832032 11.101562 33.503906 27.527344 60.3125 47.199218 76.167968-19.648437-15.863281-36.074218-42.671875-47.152343-76.175781-20.195313 5.414063-39.488281 13.742187-57.28125 24.71875 17.792969-10.976563 37.085937-19.304687 57.28125-24.71875-10.320313-32.261719-15.46875-65.953125-15.25-99.824219-.234375-33.871094 4.894531-67.566406 15.203125-99.832031-20.195313-5.410156-39.492188-13.738281-57.28125-24.71875 17.789062 10.980469 37.085937 19.308594 57.28125 24.71875 11.101562-33.503906 27.527344-60.3125 47.199218-76.167969-19.648437 15.855469-36.074218 42.664063-47.152343 76.167969 28.898437 8.015625 58.761719 11.996094 88.75 11.832031 30.003906.167969 59.886719-3.8125 88.800781-11.832031-11.101562-33.503906-27.527344-60.3125-47.199219-76.167969 19.648438 15.863282 36.070313 42.671875 47.152344 76.175782 20.191406-5.410157 39.488281-13.738282 57.28125-24.71875-17.792969 10.980468-37.089844 19.308593-57.28125 24.71875 10.320313 32.261718 15.464844 65.953124 15.246094 99.824218zm0 0"/><path d="m151.386719 223.847656c-.234375 33.871094 4.894531 67.566406 15.203125 99.832032 28.910156-8.019532 58.792968-12 88.796875-11.832032v-88zm0 0"/><path d="m255.386719 311.847656c30.003906-.167968 59.886719 3.8125 88.800781 11.832032 10.304688-32.265626 15.4375-65.960938 15.199219-99.832032h-104zm0 0"/></g><path d="m439.386719 215.847656h-72.160157c-.511718-29.316406-4.910156-58.4375-13.078124-86.597656 18.152343-5.4375 35.507812-13.238281 51.625-23.203125 2.492187-1.496094 3.976562-4.230469 3.875-7.140625-.105469-2.910156-1.777344-5.53125-4.375-6.847656-2.59375-1.320313-5.699219-1.121094-8.109376.511718-14.984374 9.246094-31.125 16.484376-48 21.519532-8.980468-27.910156-25.242187-52.917969-47.105468-72.449219-3.441406-2.675781-8.394532-2.101563-11.132813 1.289063-2.742187 3.394531-2.257812 8.359374 1.085938 11.160156 19.339843 17.363281 33.753906 39.523437 41.792969 64.238281-23.066407 5.601563-46.683594 8.636719-70.417969 9.046875v-87.527344c0-4.417968-3.582031-8-8-8s-8 3.582032-8 8v87.527344c-23.726563-.417969-47.339844-3.460938-70.398438-9.070312 8.03125-24.71875 22.445313-46.878907 41.785157-64.238282 2.28125-1.777344 3.429687-4.648437 3-7.507812-.433594-2.859375-2.375-5.265625-5.078126-6.292969-2.707031-1.023437-5.753906-.507813-7.972656 1.351563-21.859375 19.53125-38.121094 44.539062-47.101562 72.449218-16.875-5.035156-33.015625-12.269531-48-21.523437-3.722656-2.382813-8.671875-1.296875-11.058594 2.425781-2.382812 3.722656-1.296875 8.671875 2.425781 11.054688 16.117188 9.964843 33.472657 17.765624 51.625 23.199218-8.164062 28.171875-12.558593 57.300782-13.066406 86.625h-72.160156c-4.417969 0-8 3.582032-8 8 0 4.417969 3.582031 8 8 8h72.160156c.515625 29.320313 4.914063 58.4375 13.082031 86.601563-18.152344 5.433593-35.507812 13.234375-51.625 23.199219-2.496094 1.5-3.980468 4.234374-3.875 7.140624.101563 2.910157 1.777344 5.535157 4.375 6.851563 2.59375 1.316406 5.699219 1.121094 8.109375-.511719 14.984375-9.25 31.125-16.484375 48-21.519531 8.980469 27.90625 25.242188 52.914063 47.101563 72.445313 2.21875 1.859374 5.265625 2.375 7.972656 1.351562 2.703125-1.023438 4.644531-3.429688 5.078125-6.292969.429687-2.859375-.71875-5.730469-3-7.503906-19.339844-17.363281-33.757813-39.523437-41.792969-64.242187 23.066406-5.601563 46.679688-8.636719 70.414063-9.046876v87.527344c0 4.417969 3.582031 8 8 8s8-3.582031 8-8v-87.527344c23.730469.421876 47.339843 3.460938 70.402343 9.070313-8.03125 24.71875-22.445312 46.878906-41.785156 64.242187-2.285156 1.777344-3.429687 4.644532-3 7.507813.429688 2.859375 2.371094 5.265625 5.078125 6.289063 2.703125 1.023437 5.753907.507812 7.96875-1.347657 21.863281-19.535156 38.125-44.542969 47.105469-72.449219 16.875 5.035157 33.015625 12.269532 48 21.519532 1.28125.824218 2.773438 1.261718 4.296875 1.257812 3.550781-.003906 6.675781-2.347656 7.671875-5.753906 1-3.410156-.371094-7.066406-3.359375-8.984375-16.117187-9.960937-33.476563-17.761719-51.625-23.199219 8.171875-28.167968 12.574219-57.296875 13.085937-86.625h72.160157c4.417969 0 8-3.582031 8-8 0-4.417968-3.582031-8-8-8zm-100.488281-82.320312c7.714843 26.78125 11.859374 54.457031 12.328124 82.320312h-87.839843v-72.261718c25.472656-.480469 50.804687-3.855469 75.511719-10.058594zm-167.023438 0c24.710938 6.203125 50.042969 9.574218 75.511719 10.058594v72.261718h-87.839844c.472656-27.863281 4.617187-55.539062 12.328125-82.320312zm0 180.65625c-7.707031-26.785156-11.851562-54.46875-12.328125-82.335938h87.839844v72.480469c-25.460938.425781-50.792969 3.730469-75.511719 9.855469zm167.023438 0c-24.714844-6.121094-50.046876-9.429688-75.511719-9.855469v-72.480469h87.839843c-.472656 27.867188-4.617187 55.550782-12.328124 82.335938zm0 0" fill="#1e81ce"/><path d="m425.789062 78.496094c-76.066406-89.035156-207.878906-104.453125-302.4375-35.375-94.5625 69.074218-119.960937 199.332031-58.277343 298.871094l-63.789063 126.25c-1.253906 2.480468-1.128906 5.433593.324219 7.800781 1.457031 2.367187 4.039063 3.808593 6.820313 3.804687 1.195312 0 2.378906-.273437 3.453124-.800781l129.90625-62.199219c94.265626 55.355469 214.71875 34.585938 285-49.144531 70.28125-83.734375 69.855469-205.964844-1-289.207031zm-12.160156 280.3125c-66.496094 78.003906-179.917968 95.898437-267.199218 42.160156-2.316407-1.4375-5.203126-1.59375-7.65625-.40625l-112.5625 53.917969 55.242187-109.34375c1.292969-2.554688 1.121094-5.605469-.449219-8-58.390625-89.84375-38.972656-209.347657 44.859375-276.082031 83.832031-66.734376 204.644531-58.863282 279.109375 18.1875 74.464844 77.046874 78.210938 198.058593 8.65625 279.566406zm0 0" fill="#1e81ce"/></svg>