<svg height="481pt" viewBox="0 0 481.83088 481" width="481pt" xmlns="http://www.w3.org/2000/svg"><path d="m297.535156 343 131.121094 131.121094 45.199219-45.203125-131.117188-131.117188c-12.339843 17.566407-27.636719 32.859375-45.203125 45.199219zm0 0" fill="#9bc9ff"/><g fill="#1e81ce"><path d="m479.511719 423.238281-126.582031-126.558593c44.53125-68.707032 40.5625-158.101563-9.882813-222.59375-50.441406-64.492188-136.25-89.875-213.660156-63.203126-77.410157 26.671876-129.371094 99.519532-129.386719 181.398438-.171875 70.4375 38.304688 135.296875 100.210938 168.90625s137.257812 30.550781 196.238281-7.964844l126.527343 126.554688c3.125 3.121094 8.1875 3.121094 11.3125 0l45.199219-45.203125c3.125-3.121094 3.125-8.1875 0-11.308594zm-411.925781-106.542969c-65.929688-65.917968-69.015626-171.8125-7.039063-241.457031 61.976563-69.648437 167.511719-78.882812 240.640625-21.058593 73.132812 57.824218 88.484375 162.644531 35.003906 239.011718-11.804687 16.820313-26.445312 31.457032-43.261718 43.265625-69.910157 49.152344-165.058594 40.808594-225.34375-19.761719zm361.070312 146.113282-118.902344-118.90625c1.285156-1 2.503906-2.085938 3.765625-3.117188 1.082031-.890625 2.160157-1.769531 3.199219-2.679687 3.792969-3.25 7.503906-6.585938 11.011719-10.089844 3.503906-3.503906 6.839843-7.199219 10.085937-11.007813.914063-1.0625 1.792969-2.144531 2.679688-3.199218 1.03125-1.265625 2.121094-2.480469 3.121094-3.769532l118.925781 118.878907zm0 0"/><path d="m240.578125 288.839844c-3.496094 0-6.585937-2.265625-7.632813-5.601563l-40.367187-127.832031-40.371094 127.832031c-1.007812 3.46875-4.265625 5.785157-7.871093 5.601563-3.578126-.109375-6.652344-2.582032-7.519532-6.054688l-40-160c-.71875-2.78125.109375-5.734375 2.167969-7.734375 2.058594-2.003906 5.035156-2.75 7.792969-1.953125 2.757812.792969 4.882812 3.007813 5.558594 5.796875l33.136718 132.546875 39.472656-125c1.046876-3.335937 4.136719-5.601562 7.632813-5.601562 3.492187 0 6.582031 2.265625 7.628906 5.601562l39.472657 125.007813 33.136718-132.554688c1.097656-4.253906 5.425782-6.828125 9.691406-5.757812 4.261719 1.066406 6.867188 5.375 5.828126 9.648437l-40 160c-.867188 3.472656-3.941407 5.945313-7.519532 6.054688zm0 0"/></g></svg>