<svg height="480pt" viewBox="0 0 480 480" width="480pt" xmlns="http://www.w3.org/2000/svg"><g fill="#9bc9ff"><path d="m8 88h464v-80h-464zm424-48c4.417969 0 8 3.582031 8 8s-3.582031 8-8 8-8-3.582031-8-8 3.582031-8 8-8zm-48 0c4.417969 0 8 3.582031 8 8s-3.582031 8-8 8-8-3.582031-8-8 3.582031-8 8-8zm-48 0c4.417969 0 8 3.582031 8 8s-3.582031 8-8 8-8-3.582031-8-8 3.582031-8 8-8zm0 0"/><path d="m392 48c0 4.417969-3.582031 8-8 8s-8-3.582031-8-8 3.582031-8 8-8 8 3.582031 8 8zm0 0"/><path d="m440 48c0 4.417969-3.582031 8-8 8s-8-3.582031-8-8 3.582031-8 8-8 8 3.582031 8 8zm0 0"/><path d="m344 48c0 4.417969-3.582031 8-8 8s-8-3.582031-8-8 3.582031-8 8-8 8 3.582031 8 8zm0 0"/><path d="m78.878906 275.679688c4.851563 19.40625 21.246094 33.757812 41.121094 36 1.804688.230468 3.621094.335937 5.441406.320312h85.199219l13.359375-40h72l-17.761719 40h123.074219c5.976562.003906 11.457031-3.324219 14.210938-8.628906 2.75-5.304688 2.320312-11.703125-1.125-16.585938l-4.949219-7.023437c-20.964844-29.941407-55.21875-47.769531-91.769531-47.761719h-176.464844c-5.710938-.003906-10.984375-3.054688-13.839844-8l-13.960938-24.078125c-5.730468-9.863281-16.277343-15.929687-27.6875-15.921875h-9.246093c-4.9375-.003906-9.597657 2.273438-12.628907 6.167969-3.035156 3.890625-4.101562 8.96875-2.890624 13.753906zm0 0"/><path d="m296 272h-72l-13.359375 40-34.640625 104h27.199219c12.664062-.015625 24.132812-7.472656 29.28125-19.039062l45.757812-84.960938 10.640625-24zm0 0"/><path d="m288.878906 288-10.640625 24 17.761719-40zm0 0"/><path d="m240.480469 163.039062c-5.148438-11.566406-16.617188-19.023437-29.28125-19.039062h-27.199219l29.28125 88h64.320312zm0 0"/></g><path d="m472 0h-464c-4.417969 0-8 3.582031-8 8v464c0 4.417969 3.582031 8 8 8h464c4.417969 0 8-3.582031 8-8v-464c0-4.417969-3.582031-8-8-8zm-456 16h448v64h-448zm448 448h-448v-368h448zm0 0" fill="#1e81ce"/><path d="m400 48c0 8.835938-7.164062 16-16 16s-16-7.164062-16-16 7.164062-16 16-16 16 7.164062 16 16zm0 0" fill="#1e81ce"/><path d="m448 48c0 8.835938-7.164062 16-16 16s-16-7.164062-16-16 7.164062-16 16-16 16 7.164062 16 16zm0 0" fill="#1e81ce"/><path d="m352 48c0 8.835938-7.164062 16-16 16s-16-7.164062-16-16 7.164062-16 16-16 16 7.164062 16 16zm0 0" fill="#1e81ce"/><path d="m71.121094 277.601562c5.679687 22.550782 24.6875 39.257813 47.78125 42 2.167968.277344 4.351562.410157 6.539062.398438h74.125l-31.199218 93.472656c-.8125 2.445313-.398438 5.136719 1.113281 7.222656 1.515625 2.089844 3.941406 3.316407 6.519531 3.304688h27.199219c15.613281.023438 29.804687-9.0625 36.320312-23.246094l43.472657-80.753906h118.320312c8.960938 0 17.175781-4.996094 21.300781-12.949219 4.128907-7.957031 3.476563-17.550781-1.683593-24.875l-4.929688-6.976562c-22.472656-32.066407-59.160156-51.171875-98.320312-51.199219h-35.28125l-34.597657-64.230469c-6.460937-14.4375-20.785156-23.738281-36.601562-23.769531h-27.199219c-2.570312 0-4.988281 1.234375-6.492188 3.320312-1.503906 2.085938-1.914062 4.769532-1.101562 7.207032l25.777344 77.472656h-60.96875c-2.855469-.003906-5.492188-1.527344-6.917969-4l-13.960937-24.089844c-7.183594-12.304687-20.351563-19.882812-34.601563-19.910156h-9.253906c-7.398438 0-14.382813 3.410156-18.933594 9.242188-4.546875 5.832031-6.152344 13.441406-4.347656 20.613281zm154.046875 116.078126c-3.863281 8.683593-12.464844 14.289062-21.96875 14.320312h-16.101563l42.671875-128h53.917969l-12.617188 28.433594zm-30.070313-241.679688h16.101563c9.699219.089844 18.425781 5.914062 22.234375 14.832031l30.773437 57.167969h-45.160156zm-124.882812 43.039062c1.507812-1.925781 3.820312-3.046874 6.265625-3.039062h9.253906c8.5625.027344 16.464844 4.597656 20.761719 12l13.960937 24.078125c4.296875 7.421875 12.222657 11.996094 20.800781 12h176.421876c33.9375.019531 65.738281 16.574219 85.214843 44.371094l4.953125 7.023437c1.675782 2.4375 1.867188 5.605469.496094 8.226563-1.367188 2.625-4.074219 4.277343-7.03125 4.300781h-110.769531l10.554687-23.769531 2.214844-4.984375c1.097656-2.472656.871094-5.335938-.605469-7.605469-1.476562-2.269531-4-3.640625-6.707031-3.640625h-72c-3.441406 0-6.492188 2.203125-7.585938 5.464844l-11.542968 34.535156h-79.429688c-1.519531.015625-3.035156-.074219-4.539062-.273438-16.539063-1.90625-30.175782-13.84375-34.261719-29.984374l-17.90625-71.71875c-.609375-2.429688-.0625-5.007813 1.480469-6.984376zm0 0" fill="#1e81ce"/></svg>