<svg height="487pt" viewBox="0 0 487.24498 487" width="487pt" xmlns="http://www.w3.org/2000/svg"><g fill="#9bc9ff"><path d="m413.332031 17.441406c-12.511719-12.476562-32.765625-12.476562-45.277343 0l-124.402344 124.480469c-12.476563 12.515625-12.476563 32.765625 0 45.28125l16.960937 16.960937 22.640625-22.640624-5.679687-5.679688c-3.003907-3-4.691407-7.074219-4.691407-11.320312 0-4.246094 1.6875-8.320313 4.691407-11.320313l101.839843-101.761719c2.984376-3.03125 7.0625-4.738281 11.320313-4.738281 4.253906 0 8.332031 1.707031 11.320313 4.738281l33.917968 33.921875c3.003906 3 4.695313 7.074219 4.695313 11.320313s-1.691407 8.320312-4.695313 11.320312l-101.839844 101.757813c-2.984374 3.035156-7.0625 4.742187-11.320312 4.742187-4.253906 0-8.332031-1.707031-11.320312-4.742187l-5.597657-5.597657-22.640625 22.640626 16.960938 16.957031c12.511718 12.480469 32.765625 12.480469 45.277344 0l124.402343-124.476563c12.476563-12.515625 12.476563-32.769531 0-45.28125zm0 0"/><path d="m209.652344 311.601562c3.035156 2.988282 4.742187 7.066407 4.742187 11.320313 0 4.257813-1.707031 8.335937-4.742187 11.320313l-101.757813 101.839843c-3.003906 3.003907-7.074219 4.695313-11.320312 4.695313-4.246094 0-8.320313-1.691406-11.320313-4.695313l-33.921875-33.917969c-3.03125-2.988281-4.738281-7.066406-4.738281-11.320312 0-4.257812 1.707031-8.335938 4.738281-11.320312l101.761719-101.839844c3-3.003906 7.074219-4.691406 11.320312-4.691406 4.246094 0 8.320313 1.6875 11.320313 4.691406l5.679687 5.679687 22.640626-22.640625-16.960938-16.960937c-12.515625-12.476563-32.765625-12.476563-45.28125 0l-124.480469 124.402343c-12.476562 12.511719-12.476562 32.765626 0 45.277344l56.5625 56.5625c12.511719 12.476563 32.765625 12.476563 45.277344 0l124.480469-124.402344c12.480468-12.511718 12.480468-32.765624 0-45.277343l-16.957032-16.960938-22.640624 22.640625zm0 0"/><path d="m328.453125 181.523438c4.382813-3.957032 6.230469-10.003907 4.804687-15.734376-1.421874-5.730468-5.886718-10.210937-11.613281-11.65625-5.722656-1.441406-11.777343.382813-15.75 4.75l-147.121093 147.121094c-4.367188 3.972656-6.195313 10.027344-4.75 15.75 1.445312 5.726563 5.925781 10.191406 11.65625 11.613282 5.730468 1.425781 11.777343-.421876 15.734374-4.804688l22.640626-22.558594 101.839843-101.839844zm0 0"/></g><path d="m475.574219 68.347656-56.5625-56.558594c-15.65625-15.554687-40.933594-15.554687-56.589844 0l-124.449219 124.476563c-15.554687 15.65625-15.554687 40.9375 0 56.59375l11.304688 11.304687-45.222656 45.246094-11.320313-11.328125c-15.652344-15.554687-40.925781-15.554687-56.578125 0l-124.503906 124.441407c-15.535156 15.65625-15.535156 40.917968 0 56.574218l56.601562 56.585938c15.652344 15.550781 40.921875 15.550781 56.574219 0l124.480469-124.398438c15.539062-15.664062 15.539062-40.925781 0-56.585937l-11.335938-11.375 45.242188-45.242188 11.34375 11.34375c15.65625 15.554688 40.933594 15.554688 56.589844 0l124.425781-124.488281c15.5625-15.652344 15.5625-40.9375 0-56.589844zm-192.34375 101.832032c-1.503907-1.5-2.347657-3.535157-2.347657-5.660157s.84375-4.160156 2.347657-5.660156l101.878906-101.792969c1.46875-1.519531 3.488281-2.386718 5.601563-2.398437 2.128906.003906 4.167968.871093 5.65625 2.398437l33.917968 33.921875c1.503906 1.5 2.351563 3.539063 2.351563 5.664063s-.847657 4.160156-2.351563 5.664062l-101.847656 101.832032c-3.117188 3.074218-8.125 3.074218-11.238281 0l16.902343-16.96875c6.238282-6.121094 8.628907-15.164063 6.230469-23.570313-2.402343-8.402344-9.203125-14.820313-17.734375-16.726563-.289062-.0625-.558594-.191406-.847656-.246093-.933594-.148438-1.878906-.238281-2.824219-.273438-.585937 0-1.160156-.167969-1.753906-.167969-.589844 0-1.125.121094-1.695313.160157-.964843.039062-1.925781.128906-2.878906.28125-.144531 0-.289062.09375-.433594.125-4.515624.921875-8.664062 3.148437-11.925781 6.402343l-16.984375 17.046876zm28.320312-5.640626c3.148438-3 8.097657-3 11.246094 0 1.523437 1.492188 2.382813 3.535157 2.382813 5.667969 0 2.132813-.859376 4.175781-2.382813 5.667969l-147.046875 147.007812c-3.171875 3.011719-8.148438 3.011719-11.320312 0-.75-.75-1.34375-1.640624-1.742188-2.625-.089844-.335937-.15625-.675781-.203125-1.023437-.359375-1.339844-.359375-2.75 0-4.085937.042969-.300782.101563-.597657.175781-.890626.402344-.980468.996094-1.871093 1.746094-2.621093zm-107.503906 152.746094c1.507813 1.480469 2.355469 3.503906 2.355469 5.617188 0 2.113281-.847656 4.140625-2.355469 5.621094l-101.808594 101.902343c-1.5 1.507813-3.539062 2.351563-5.664062 2.351563s-4.164063-.84375-5.664063-2.351563l-33.960937-33.941406c-1.515625-1.488281-2.367188-3.527344-2.359375-5.652344.007812-2.125.871094-4.160156 2.398437-5.636719l101.785157-101.855468c1.5-1.503906 3.539062-2.351563 5.664062-2.351563s4.164062.847657 5.664062 2.351563l-16.984374 16.984375c-8.707032 9.476562-8.386719 24.132812.71875 33.222656 9.109374 9.089844 23.765624 9.378906 33.226562.65625zm33.925781 22.671875-124.453125 124.390625c-9.402343 9.332032-24.570312 9.332032-33.96875 0l-56.5625-56.558594c-9.328125-9.402343-9.328125-24.570312 0-33.96875l124.480469-124.402343c9.398438-9.332031 24.570312-9.332031 33.96875 0l11.304688 11.304687-11.328126 11.328125c-9.503906-9.070312-24.457031-9.070312-33.960937 0l-101.742187 101.777344c-4.546876 4.484375-7.105469 10.609375-7.105469 16.996094s2.558593 12.507812 7.105469 16.996093l33.917968 33.917969c9.375 9.382813 24.578125 9.382813 33.953125 0l101.710938-101.824219c4.535156-4.472656 7.09375-10.574218 7.105469-16.945312.007812-6.371094-2.527344-12.484375-7.050782-16.972656l11.347656-11.320313 11.277344 11.304688c9.332032 9.402343 9.332032 24.570312 0 33.976562zm101.882813-101.875c-9.402344 9.34375-24.585938 9.34375-33.984375 0l-11.304688-11.277343 11.328125-11.351563c4.476563 4.523437 10.578125 7.070313 16.945313 7.070313 6.367187 0 12.472656-2.546876 16.949218-7.070313l101.839844-101.761719c9.378906-9.375 9.378906-24.578125 0-33.953125l-33.878906-33.910156c-4.472656-4.558594-10.589844-7.128906-16.976562-7.128906-6.382813-.015625-12.5 2.539062-16.976563 7.089843l-101.839844 101.757813c-9.378906 9.375-9.378906 24.578125 0 33.953125l-11.34375 11.351562-11.289062-11.289062c-9.335938-9.398438-9.335938-24.574219 0-33.976562l124.371093-124.460938c9.398438-9.34375 24.582032-9.34375 33.980469 0l56.546875 56.558594c9.328125 9.40625 9.328125 24.578125 0 33.984375zm0 0" fill="#1e81ce"/></svg>