<svg height="480pt" viewBox="-63 0 479 480" width="480pt" xmlns="http://www.w3.org/2000/svg"><path d="m344.5 176c0-92.785156-75.214844-168-168-168s-168 75.214844-168 168c0 92.800781 168 296 168 296s168-203.199219 168-296zm-291.105469-32h94.042969l29.0625-89.441406 29.0625 89.441406h94.042969l-76.082031 55.28125 29.066406 89.4375-76.089844-55.277344-76.089844 55.277344 29.066406-89.4375zm0 0" fill="#9bc9ff"/><g fill="#1e81ce"><path d="m176.5 480c-2.386719 0-4.648438-1.066406-6.167969-2.902344-6.9375-8.386718-169.832031-206.53125-169.832031-301.097656 0-97.203125 78.796875-176 176-176s176 78.796875 176 176c0 94.566406-162.894531 292.710938-169.832031 301.097656-1.519531 1.835938-3.78125 2.902344-6.167969 2.902344zm0-464c-88.324219.101562-159.898438 71.675781-160 160 0 78.953125 129.894531 245.703125 160 283.28125 30.105469-37.601562 160-204.328125 160-283.28125-.101562-88.324219-71.675781-159.898438-160-160zm0 0"/><path d="m252.589844 296.71875c-1.691406 0-3.339844-.539062-4.707032-1.535156l-71.382812-51.847656-71.382812 51.863281c-2.804688 2.035156-6.597657 2.035156-9.402344 0-2.800782-2.03125-3.976563-5.640625-2.910156-8.933594l27.261718-83.914063-71.382812-51.863281c-2.816406-2.035156-4-5.652343-2.929688-8.957031 1.074219-3.308594 4.160156-5.542969 7.632813-5.53125h88.242187l27.261719-83.910156c1.082031-3.285156 4.144531-5.503906 7.601563-5.503906 3.457031 0 6.519531 2.21875 7.601562 5.503906l27.277344 83.910156h88.242187c3.464844 0 6.535157 2.230469 7.609375 5.527344 1.070313 3.296875-.101562 6.90625-2.90625 8.945312l-71.382812 51.863282 27.261718 83.910156c.792969 2.4375.371094 5.105468-1.136718 7.175781-1.503906 2.070313-3.910156 3.296875-6.46875 3.296875zm-76.089844-71.269531c1.691406 0 3.335938.535156 4.703125 1.527343l56.160156 40.800782-21.449219-66.023438c-1.074218-3.300781.097657-6.914062 2.90625-8.953125l56.175782-40.800781h-69.433594c-3.464844 0-6.535156-2.230469-7.605469-5.527344l-21.457031-66.023437-21.457031 66.023437c-1.070313 3.296875-4.140625 5.527344-7.605469 5.527344h-69.433594l56.175782 40.800781c2.800781 2.035157 3.972656 5.640625 2.90625 8.933594l-21.449219 66.027344 56.160156-40.800781c1.367187-.988282 3.015625-1.519532 4.703125-1.511719zm0 0"/></g></svg>