<svg height="480pt" viewBox="0 0 480 480" width="480pt" xmlns="http://www.w3.org/2000/svg"><g fill="#9bc9ff"><path d="m40 8h232c17.671875 0 32 14.328125 32 32v16h-296v-16c0-17.671875 14.328125-32 32-32zm0 0"/><path d="m272 472h-232c-17.671875 0-32-14.328125-32-32v-16h296v16c0 17.671875-14.328125 32-32 32zm0 0"/><path d="m424.398438 180.878906 25.679687-25.757812-45.199219-45.199219-25.757812 25.679687c-8.539063-4.867187-17.648438-8.65625-27.121094-11.28125v-36.320312h-64v36.320312c-9.472656 2.625-18.582031 6.414063-27.121094 11.28125l-25.757812-25.679687-45.199219 45.199219 25.679687 25.757812c-4.867187 8.539063-8.65625 17.648438-11.28125 27.121094h-36.320312v64h36.320312c2.625 9.472656 6.414063 18.582031 11.28125 27.121094l-25.679687 25.757812 45.199219 45.199219 25.757812-25.679687c8.539063 4.867187 17.648438 8.65625 27.121094 11.28125v36.320312h64v-36.320312c9.472656-2.625 18.582031-6.414063 27.121094-11.28125l25.757812 25.679687 45.199219-45.199219-25.679687-25.757812c4.867187-8.539063 8.65625-17.648438 11.28125-27.121094h36.320312v-64h-36.320312c-2.625-9.472656-6.414063-18.582031-11.28125-27.121094zm-104.398438 123.121094c-5.394531-.007812-10.769531-.679688-16-2-28.261719-7.308594-48.003906-32.808594-48.003906-62s19.742187-54.691406 48.003906-62c5.230469-1.320312 10.605469-1.992188 16-2 35.347656 0 64 28.652344 64 64s-28.652344 64-64 64zm0 0"/></g><path d="m472 200h-30.398438c-2.015624-6.066406-4.476562-11.972656-7.371093-17.671875l21.511719-21.527344c3.121093-3.125 3.121093-8.183593 0-11.304687l-45.199219-45.199219c-3.121094-3.117187-8.179688-3.117187-11.304688 0l-21.558593 21.496094c-5.699219-2.902344-11.609376-5.375-17.679688-7.394531v-30.398438c0-4.417969-3.582031-8-8-8h-40v-40c-.027344-22.082031-17.917969-39.9726562-40-40h-232c-22.082031.0273438-39.9726562 17.917969-40 40v400c.0273438 22.082031 17.917969 39.972656 40 40h232c22.082031-.027344 39.972656-17.917969 40-40v-40h40c4.417969 0 8-3.582031 8-8v-30.398438c6.066406-2.011718 11.972656-4.476562 17.671875-7.371093l21.601563 21.496093c3.121093 3.121094 8.179687 3.121094 11.300781 0l45.203125-45.199218c3.117187-3.121094 3.117187-8.179688 0-11.304688l-21.496094-21.558594c2.875-5.699218 5.320312-11.601562 7.320312-17.664062h30.398438c4.417969 0 8-3.582031 8-8v-64c0-4.417969-3.582031-8-8-8zm-432-184h232c13.253906 0 24 10.746094 24 24v8h-280v-8c0-13.253906 10.746094-24 24-24zm232 448h-232c-13.253906 0-24-10.746094-24-24v-8h280v8c0 13.253906-10.746094 24-24 24zm24-48h-280v-352h280v16h-8c-4.417969 0-8 3.582031-8 8v30.398438c-6.066406 2.011718-11.972656 4.476562-17.671875 7.371093l-21.527344-21.511719c-3.125-3.121093-8.183593-3.121093-11.304687 0l-45.199219 45.199219c-3.117187 3.121094-3.117187 8.179688 0 11.304688l21.496094 21.597656c-2.898438 5.6875-5.371094 11.585937-7.394531 17.640625h-30.398438c-4.417969 0-8 3.582031-8 8v64c0 4.417969 3.582031 8 8 8h30.398438c2.015624 6.066406 4.476562 11.972656 7.371093 17.671875l-21.496093 21.601563c-3.121094 3.121093-3.121094 8.179687 0 11.300781l45.199218 45.203125c3.121094 3.117187 8.179688 3.117187 11.304688 0l21.597656-21.496094c5.683594 2.875 11.578125 5.320312 17.625 7.320312v30.398438c0 4.417969 3.582031 8 8 8h8zm168-152h-28.320312c-3.597657 0-6.753907 2.402344-7.710938 5.871094-2.457031 8.84375-5.992188 17.351562-10.527344 25.328125-1.777344 3.125-1.25 7.054687 1.285156 9.601562l20.050782 20.101563-33.90625 33.90625-20.070313-20.074219c-2.546875-2.539063-6.472656-3.070313-9.601562-1.292969-7.972657 4.546875-16.476563 8.09375-25.320313 10.558594-3.460937.949219-5.863281 4.089844-5.878906 7.679688v28.320312h-48v-28.320312c0-3.601563-2.40625-6.757813-5.878906-7.710938-8.839844-2.457031-17.34375-5.992188-25.320313-10.527344-3.128906-1.777344-7.054687-1.246094-9.601562 1.292969l-20.101563 20.042969-33.90625-33.90625 20.082032-20.070313c2.535156-2.546875 3.0625-6.476562 1.285156-9.601562-4.546875-7.976563-8.09375-16.484375-10.558594-25.328125-.953125-3.457032-4.09375-5.855469-7.679688-5.871094h-28.320312v-48h28.320312c3.597657 0 6.753907-2.402344 7.710938-5.871094 2.457031-8.84375 5.992188-17.351562 10.527344-25.328125 1.777344-3.125 1.25-7.054687-1.285156-9.601562l-20.050782-20.101563 33.90625-33.90625 20.070313 20.074219c2.546875 2.539063 6.472656 3.070313 9.601562 1.292969 7.972657-4.546875 16.476563-8.09375 25.320313-10.558594 3.460937-.949219 5.863281-4.089844 5.878906-7.679688v-28.320312h48v28.320312c0 3.601563 2.40625 6.757813 5.878906 7.710938 8.839844 2.457031 17.34375 5.992188 25.320313 10.527344 3.128906 1.777344 7.054687 1.246094 9.601562-1.292969l20.101563-20.042969 33.90625 33.90625-20.082032 20.070313c-2.535156 2.546875-3.0625 6.476562-1.285156 9.601562 4.546875 7.976563 8.09375 16.484375 10.558594 25.328125.953125 3.457032 4.09375 5.855469 7.679688 5.871094h28.320312zm0 0" fill="#1e81ce"/><path d="m320 168c-6.070312.011719-12.113281.765625-18 2.246094-31.804688 8.214844-54.015625 36.90625-54 69.753906 0 2.054688.089844 4.089844.257812 6.113281 2.578126 30.472657 24.128907 55.992188 53.742188 63.640625h.054688c5.867187 1.480469 11.894531 2.234375 17.945312 2.246094 39.765625 0 72-32.234375 72-72s-32.234375-72-72-72zm-55.265625 63.199219c.152344-.941407.417969-1.847657.617187-2.773438.378907-1.910156.863282-3.800781 1.449219-5.65625.335938-1.050781.75-2.066406 1.152344-3.082031.640625-1.65625 1.34375-3.28125 2.136719-4.855469.511718-1.015625 1.054687-2.015625 1.597656-2.992187.878906-1.503906 1.832031-2.953125 2.839844-4.359375.65625-.914063 1.296875-1.832031 2-2.703125 1.144531-1.410156 2.402344-2.722656 3.664062-4 .71875-.730469 1.402344-1.511719 2.160156-2.203125 1.742188-1.558594 3.578126-3.007813 5.496094-4.34375.425782-.292969.800782-.65625 1.230469-.941407 2.214844-1.441406 4.527344-2.726562 6.921875-3.839843v101.085937c-2.40625-1.109375-4.730469-2.390625-6.953125-3.832031-.175781-.117187-.328125-.261719-.503906-.382813-2.179688-1.488281-4.257813-3.125-6.207031-4.90625-.695313-.628906-1.3125-1.34375-1.96875-2.007812-1.34375-1.351562-2.648438-2.734375-3.847657-4.207031-.671875-.800781-1.289062-1.726563-1.917969-2.597657-1.035156-1.441406-2.007812-2.921874-2.90625-4.457031-.558593-.960937-1.085937-1.9375-1.597656-2.9375-.800781-1.597656-1.511718-3.199219-2.160156-4.894531-.402344-1.015625-.800781-2.015625-1.144531-3.054688-.585938-1.867187-1.070313-3.765624-1.457031-5.683593-.191407-.917969-.457032-1.820313-.601563-2.757813-.476563-2.914062-.722656-5.863281-.734375-8.816406.015625-2.949219.261719-5.890625.734375-8.800781zm55.265625 64.800781c-2.679688-.019531-5.351562-.230469-8-.625v-110.75c2.648438-.394531 5.320312-.601562 8-.625 30.929688 0 56 25.070312 56 56s-25.070312 56-56 56zm0 0" fill="#1e81ce"/></svg>