<svg height="480pt" viewBox="0 0 480 480.00004" width="480pt" xmlns="http://www.w3.org/2000/svg"><path d="m88 472 112-112h192v-280h-384v280h80zm0 0" fill="#9bc9ff"/><path d="m472 0h-384c-4.417969 0-8 3.582031-8 8v64h-72c-4.417969 0-8 3.582031-8 8v280c0 4.417969 3.582031 8 8 8h72v104c0 3.234375 1.949219 6.152344 4.9375 7.390625.96875.40625 2.011719.613281 3.0625.609375 2.121094 0 4.15625-.84375 5.65625-2.34375l109.65625-109.65625h188.6875c4.417969 0 8-3.582031 8-8v-64h72c4.417969 0 8-3.582031 8-8v-280c0-4.417969-3.582031-8-8-8zm-88 352h-184c-2.121094 0-4.15625.84375-5.65625 2.34375l-98.34375 98.34375v-92.6875c0-4.417969-3.582031-8-8-8h-72v-264h368zm80-72h-64v-200c0-4.417969-3.582031-8-8-8h-296v-56h368zm0 0" fill="#1e81ce"/></svg>