<svg height="480pt" viewBox="0 0 480 480" width="480pt" xmlns="http://www.w3.org/2000/svg"><path d="m8 88h464v-80h-464zm424-48c4.417969 0 8 3.582031 8 8s-3.582031 8-8 8-8-3.582031-8-8 3.582031-8 8-8zm-48 0c4.417969 0 8 3.582031 8 8s-3.582031 8-8 8-8-3.582031-8-8 3.582031-8 8-8zm-48 0c4.417969 0 8 3.582031 8 8s-3.582031 8-8 8-8-3.582031-8-8 3.582031-8 8-8zm0 0" fill="#9bc9ff"/><path d="m392 48c0 4.417969-3.582031 8-8 8s-8-3.582031-8-8 3.582031-8 8-8 8 3.582031 8 8zm0 0" fill="#9bc9ff"/><path d="m440 48c0 4.417969-3.582031 8-8 8s-8-3.582031-8-8 3.582031-8 8-8 8 3.582031 8 8zm0 0" fill="#9bc9ff"/><path d="m344 48c0 4.417969-3.582031 8-8 8s-8-3.582031-8-8 3.582031-8 8-8 8 3.582031 8 8zm0 0" fill="#9bc9ff"/><path d="m272 408c0 17.671875-14.328125 32-32 32s-32-14.328125-32-32 14.328125-32 32-32 32 14.328125 32 32zm0 0" fill="#9bc9ff"/><g fill="#1e81ce"><path d="m472 0h-464c-4.417969 0-8 3.582031-8 8v464c0 4.417969 3.582031 8 8 8h464c4.417969 0 8-3.582031 8-8v-464c0-4.417969-3.582031-8-8-8zm-456 16h448v64h-448zm448 448h-448v-368h448zm0 0"/><path d="m400 48c0 8.835938-7.164062 16-16 16s-16-7.164062-16-16 7.164062-16 16-16 16 7.164062 16 16zm0 0"/><path d="m448 48c0 8.835938-7.164062 16-16 16s-16-7.164062-16-16 7.164062-16 16-16 16 7.164062 16 16zm0 0"/><path d="m352 48c0 8.835938-7.164062 16-16 16s-16-7.164062-16-16 7.164062-16 16-16 16 7.164062 16 16zm0 0"/><path d="m206.632812 385.945312c-10.109374 15.289063-8.527343 35.492188 3.832032 49.027344s32.339844 16.9375 48.480468 8.257813c16.144532-8.683594 24.320313-27.226563 19.84375-45-4.476562-17.773438-20.460937-30.230469-38.789062-30.230469-7.847656-.019531-15.523438 2.289062-22.054688 6.632812l-108.058593-108.058593c-2.007813-2.078125-4.980469-2.910157-7.777344-2.179688s-4.984375 2.917969-5.714844 5.714844.101563 5.769531 2.179688 7.777344zm50.335938 5.078126c9.378906 9.375 9.378906 24.578124 0 33.953124-9.5 9.054688-24.4375 9.054688-33.9375 0-9.375-9.371093-9.378906-24.570312-.007812-33.945312 9.371093-9.375 24.570312-9.378906 33.945312-.007812zm0 0"/><path d="m140.046875 276c59.285156-36.109375 133.441406-37.417969 193.960937-3.421875 60.519532 33.996094 97.984376 98.007813 97.992188 167.421875 0 4.417969 3.582031 8 8 8s8-3.582031 8-8c-.023438-75.195312-40.621094-144.523438-106.1875-181.335938-65.566406-36.816406-145.894531-35.386718-210.109375 3.734376-3.394531 2.449218-4.328125 7.105468-2.136719 10.675781 2.1875 3.566406 6.757813 4.84375 10.480469 2.925781zm0 0"/><path d="m40 448c4.417969 0 8-3.582031 8-8-.097656-49.726562 19.191406-97.53125 53.777344-133.265625 2.925781-3.199219 2.769531-8.152344-.355469-11.160156-3.121094-3.011719-8.078125-2.980469-11.164063.066406-37.46875 38.703125-58.367187 90.492187-58.257812 144.359375 0 4.417969 3.582031 8 8 8zm0 0"/></g></svg>