<svg height="480pt" viewBox="0 -40 480 480" width="480pt" xmlns="http://www.w3.org/2000/svg"><path d="m240 88c-70.691406 0-128 57.308594-128 128s57.308594 128 128 128 128-57.308594 128-128-57.308594-128-128-128zm0 224c-53.019531 0-96-42.980469-96-96s42.980469-96 96-96 96 42.980469 96 96c-.058594 52.996094-43.003906 95.941406-96 96zm0 0" fill="#9bc9ff"/><path d="m336 216c0 53.019531-42.980469 96-96 96s-96-42.980469-96-96 42.980469-96 96-96 96 42.980469 96 96zm0 0" fill="#9bc9ff"/><g fill="#1e81ce"><path d="m472 400h-464c-4.417969 0-8-3.582031-8-8v-320c0-4.417969 3.582031-8 8-8h116l45.601562-60.800781c1.507813-2.011719 3.878907-3.199219 6.398438-3.199219h128c2.519531 0 4.890625 1.1875 6.398438 3.199219l45.601562 60.800781h116c4.417969 0 8 3.582031 8 8v320c0 4.417969-3.582031 8-8 8zm-456-16h448v-304h-112c-2.519531 0-4.890625-1.1875-6.398438-3.199219l-45.601562-60.800781h-120l-45.601562 60.800781c-1.507813 2.011719-3.878907 3.199219-6.398438 3.199219h-112zm0 0"/><path d="m240 352c-75.109375 0-136-60.890625-136-136s60.890625-136 136-136 136 60.890625 136 136c-.082031 75.074219-60.925781 135.917969-136 136zm0-256c-66.273438 0-120 53.726562-120 120s53.726562 120 120 120 120-53.726562 120-120c-.074219-66.242188-53.757812-119.925781-120-120zm0 0"/><path d="m240 320c-57.4375 0-104-46.5625-104-104s46.5625-104 104-104 104 46.5625 104 104c-.066406 57.410156-46.589844 103.933594-104 104zm0-192c-48.601562 0-88 39.398438-88 88s39.398438 88 88 88 88-39.398438 88-88c-.058594-48.578125-39.421875-87.941406-88-88zm0 0"/></g></svg>