<svg height="480pt" viewBox="0 -40 480 479" width="480pt" xmlns="http://www.w3.org/2000/svg"><g fill="#9bc9ff"><path d="m56 104.585938c-26.507812 0-48 21.488281-48 48v16c0 26.507812 21.492188 48 48 48h112v-112zm0 0"/><path d="m440 24.503906c0-5.335937-2.660156-10.320312-7.089844-13.289062-4.433594-2.972656-10.054687-3.539063-14.988281-1.511719l-160.160156 74.882813c-16.96875 7.914062-35.46875 12.011718-54.195313 12h-35.566406v128h35.566406c18.730469 0 37.226563 4.109374 54.195313 12.039062l160.160156 74.839844c4.933594 2.027344 10.554687 1.460937 14.988281-1.511719 4.429688-2.96875 7.089844-7.953125 7.089844-13.289063zm0 0"/><path d="m73.367188 253.0625c-6.191407 34.070312-6.191407 68.972656 0 103.042969l4.242187 23.34375c1.382813 7.605469 8.011719 13.136719 15.742187 13.136719h49.800782c5.441406 0 10.511718-2.765626 13.457031-7.339844 2.945313-4.574219 3.363281-10.332032 1.109375-15.285156l-4.863281-10.6875c-16.183594-35.609376-21.105469-75.308594-14.113281-113.792969l5.257812-28.894531h-64zm0 0"/></g><path d="m480 160.585938c-.015625-21.578126-12.480469-41.207032-32-50.402344v-85.679688c0-8.070312-4.054688-15.601562-10.792969-20.042968-6.742187-4.4414068-15.261719-5.199219-22.679687-2.011719l-160.128906 74.847656c-15.921876 7.414063-33.265626 11.265625-50.832032 11.289063h-35.566406c-4.417969 0-8 3.578124-8 8h-104c-30.910156.039062-55.9609375 25.085937-56 56v16c.0390625 30.910156 25.089844 55.957031 56 56h14.398438l-4.917969 27.054687c-6.382813 35.007813-6.382813 70.878906 0 105.886719l4.246093 23.34375c2.074219 11.417968 12.019532 19.71875 23.625 19.714844h49.800782c8.160156-.003907 15.757812-4.148438 20.175781-11.007813s5.046875-15.492187 1.671875-22.921875l-4.855469-10.695312c-15.566406-34.109376-20.289062-72.175782-13.527343-109.058594l4.054687-22.316406h9.328125c0 4.417968 3.582031 8 8 8h35.566406c17.554688.027343 34.890625 3.878906 50.800782 11.285156l160.503906 74.992187c7.40625 3.046875 15.839844 2.199219 22.488281-2.257812 6.652344-4.457031 10.640625-11.9375 10.640625-19.941407v-85.679687c19.519531-9.195313 31.984375-28.824219 32-50.398437zm-334.398438 202 4.863282 10.695312c1.125 2.480469.910156 5.363281-.570313 7.648438-1.476562 2.285156-4.019531 3.664062-6.742187 3.65625h-49.800782c-3.867187 0-7.179687-2.765626-7.871093-6.570313l-4.25-23.34375c-6.039063-33.117187-6.039063-67.058594 0-100.175781l5.449219-29.910156h47.71875l-3.535157 19.460937c-7.339843 40.089844-2.195312 81.464844 14.738281 118.539063zm-89.601562-154c-22.082031-.027344-39.972656-17.921876-40-40v-16c.027344-22.082032 17.917969-39.976563 40-40h104v96zm376 88.078124c.023438 2.675782-1.308594 5.183594-3.542969 6.65625-2.09375 1.445313-4.761719 1.78125-7.144531.894532l-160.160156-74.832032c-18.042969-8.398437-37.699219-12.765624-57.601563-12.796874h-27.550781v-112h27.566406c19.902344-.035157 39.558594-4.402344 57.601563-12.800782l159.800781-74.6875c2.46875-1.011718 5.277344-.726562 7.492188.761719 2.214843 1.484375 3.539062 3.976563 3.539062 6.644531zm16-168.078124c10.070312 7.550781 16 19.40625 16 32 0 12.589843-5.929688 24.445312-16 32" fill="#1e81ce"/></svg>