<svg height="480pt" viewBox="0 0 480 480" width="480pt" xmlns="http://www.w3.org/2000/svg"><g fill="#9bc9ff"><path d="m296 208c8.824219.027344 15.972656 7.175781 16 16 0-8.835938-7.164062-16-16-16zm0 0"/><path d="m312 224v8h144c8.835938 0 16-7.164062 16-16v-192c0-8.835938-7.164062-16-16-16h-288c-8.835938 0-16 7.164062-16 16v184h144c8.835938 0 16 7.164062 16 16zm0 0"/><path d="m144 400h48v-8h120v-168c-.027344-8.824219-7.175781-15.972656-16-16h-256c-8.824219.027344-15.972656 7.175781-16 16v168h120zm0 0"/><path d="m40 424h256c8.488281.011719 16.636719-3.355469 22.640625-9.359375s9.371094-14.152344 9.359375-22.640625h-136v8h-48v-8h-136c0 17.671875 14.328125 32 32 32zm0 0"/><path d="m376 312h64c8.835938 0 16 7.164062 16 16v128c0 8.835938-7.164062 16-16 16h-64c-8.835938 0-16-7.164062-16-16v-128c0-8.835938 7.164062-16 16-16zm0 0"/></g><path d="m456 0h-288c-13.253906 0-24 10.746094-24 24v176h-104c-13.253906 0-24 10.746094-24 24v160h-8c-4.417969 0-8 3.582031-8 8 .0273438 22.082031 17.917969 39.972656 40 40h256c10.613281.011719 20.792969-4.199219 28.296875-11.703125s11.714844-17.683594 11.703125-28.296875c0-4.417969-3.582031-8-8-8h-8v-88h88c4.417969 0 8-3.582031 8-8s-3.582031-8-8-8h-41.96875l-11.421875-40h101.390625c13.253906 0 24-10.746094 24-24v-192c0-13.253906-10.746094-24-24-24zm-142.976562 408.945312c-4.519532 4.507813-10.640626 7.046876-17.023438 7.054688h-256c-10.167969-.011719-19.230469-6.417969-22.632812-16h118.632812c0 4.417969 3.582031 8 8 8h48c4.417969 0 8-3.582031 8-8h118.632812c-1.191406 3.355469-3.109374 6.410156-5.609374 8.945312zm-121.023438-24.945312c-4.417969 0-8 3.582031-8 8h-32c0-4.417969-3.582031-8-8-8h-112v-160c0-4.417969 3.582031-8 8-8h256c4.417969 0 8 3.582031 8 8v160zm157.390625-104h-29.390625v-40h17.96875zm114.609375-64c0 4.417969-3.582031 8-8 8h-136c0-13.253906-10.746094-24-24-24h-136v-176c0-4.417969 3.582031-8 8-8h288c4.417969 0 8 3.582031 8 8zm0 0" fill="#1e81ce"/><path d="m440 304h-64c-13.253906 0-24 10.746094-24 24v128c0 13.253906 10.746094 24 24 24h64c13.253906 0 24-10.746094 24-24v-128c0-13.253906-10.746094-24-24-24zm8 152c0 4.417969-3.582031 8-8 8h-64c-4.417969 0-8-3.582031-8-8v-128c0-4.417969 3.582031-8 8-8h64c4.417969 0 8 3.582031 8 8zm0 0" fill="#1e81ce"/></svg>