<svg height="481pt" viewBox="0 0 481.83088 481" width="481pt" xmlns="http://www.w3.org/2000/svg"><path d="m322.097656 322.359375c-7.578125 7.574219-15.796875 14.480469-24.5625 20.640625l131.121094 131.121094 45.199219-45.203125-131.117188-131.117188c-6.164062 8.761719-13.070312 16.980469-20.640625 24.558594zm0 0" fill="#9bc9ff"/><g fill="#1e81ce"><path d="m288.175781 104.105469c-2.121093.003906-4.160156-.839844-5.65625-2.34375-40.292969-39.957031-101.992187-48.820313-151.902343-21.824219-3.878907 2.113281-8.742188.6875-10.855469-3.195312-2.117188-3.878907-.6875-8.738282 3.191406-10.855469 56.148437-30.351563 125.550781-20.375 170.878906 24.5625 2.289063 2.285156 2.972657 5.726562 1.734375 8.714843-1.238281 2.988282-4.15625 4.9375-7.390625 4.941407zm0 0"/><path d="m95.839844 104.105469c-3.238282.003906-6.164063-1.945313-7.402344-4.9375-1.242188-2.992188-.554688-6.441407 1.738281-8.726563 2.710938-2.707031 5.496094-5.28125 8.359375-7.730468 3.359375-2.871094 8.410156-2.476563 11.28125.882812 2.871094 3.355469 2.476563 8.40625-.878906 11.277344-2.542969 2.175781-5.023438 4.46875-7.441406 6.878906-1.496094 1.511719-3.53125 2.359375-5.65625 2.355469zm0 0"/><path d="m479.511719 423.238281-126.582031-126.558593c44.53125-68.707032 40.5625-158.101563-9.882813-222.59375-50.441406-64.492188-136.25-89.875-213.660156-63.203126-77.410157 26.671876-129.371094 99.519532-129.386719 181.398438-.171875 70.4375 38.304688 135.296875 100.210938 168.90625s137.257812 30.550781 196.238281-7.964844l126.527343 126.554688c3.125 3.121094 8.1875 3.121094 11.3125 0l45.199219-45.203125c3.125-3.121094 3.125-8.1875 0-11.308594zm-411.925781-106.542969c-65.929688-65.917968-69.015626-171.8125-7.039063-241.457031 61.976563-69.648437 167.511719-78.882812 240.640625-21.058593 73.132812 57.824218 88.484375 162.644531 35.003906 239.011718-11.804687 16.820313-26.445312 31.457032-43.261718 43.265625-69.910157 49.148438-165.058594 40.804688-225.34375-19.761719zm361.070312 146.113282-118.902344-118.90625c1.285156-1 2.503906-2.085938 3.765625-3.117188 1.082031-.890625 2.160157-1.769531 3.199219-2.679687 3.792969-3.25 7.503906-6.585938 11.011719-10.089844 3.503906-3.503906 6.839843-7.199219 10.085937-11.007813.914063-1.0625 1.792969-2.144531 2.679688-3.199218 1.03125-1.265625 2.121094-2.480469 3.121094-3.769532l118.925781 118.878907zm0 0"/></g></svg>