<svg height="480pt" viewBox="0 -24 480 480" width="480pt" xmlns="http://www.w3.org/2000/svg"><path d="m8 328h464v-320h-464zm400-264c17.671875 0 32 14.328125 32 32s-14.328125 32-32 32-32-14.328125-32-32 14.328125-32 32-32zm-89.375 121.375 66.511719-66.511719-66.511719 66.511719c12.5 12.496094 12.5 32.761719.003906 45.257812-12.496094 12.5-32.761718 12.5-45.257812 0-12.496094-12.496093-12.496094-32.761718.003906-45.257812 12.496094-12.492188 32.753906-12.492188 45.25 0zm-160.839844-75.726562c10.132813-14.480469 30.089844-18 44.566406-7.863282 14.480469 10.132813 18 30.089844 7.863282 44.566406l58.296875 44.800782-58.296875-44.800782c-10.132813 14.480469-30.089844 18-44.566406 7.863282-14.480469-10.132813-18-30.089844-7.863282-44.566406zm-108.410156 107.726562c12.496094-12.492188 32.753906-12.492188 45.25 0l63.199219-63.199219-63.199219 63.199219c12.5 12.496094 12.5 32.761719.003906 45.257812-12.496094 12.5-32.761718 12.5-45.257812 0-12.496094-12.496093-12.496094-32.761718.003906-45.257812zm0 0" fill="#9bc9ff"/><g fill="#1e81ce"><path d="m72 280c14.71875-.003906 28.246094-8.089844 35.214844-21.054688 6.972656-12.960937 6.261718-28.703124-1.847656-40.984374l56.625-56.625c6.488281 4.339843 14.113281 6.667968 21.917968 6.6875 2.359375 0 4.710938-.203126 7.035156-.617188 7.609376-1.332031 14.667969-4.859375 20.300782-10.148438l47.464844 36.496094c-6.789063 17.679688-.253907 37.699219 15.667968 47.960938 15.917969 10.261718 36.851563 7.953125 50.152344-5.53125s15.316406-34.449219 4.835938-50.222656l56.609374-56.609376c17.179688 11.371094 40.175782 7.882813 53.210938-8.070312s11.867188-39.1875-2.699219-53.753906c-14.566406-14.566406-37.800781-15.734375-53.753906-2.699219s-19.441406 36.03125-8.070313 53.210937l-56.609374 56.609376c-15.863282-10.453126-36.886719-8.332032-50.34375 5.078124-.144532.152344-.238282.328126-.375.472657l-46.777344-36c7.800781-17.53125 2.050781-38.136719-13.703125-49.09375-15.753907-10.960938-37.070313-9.1875-50.796875 4.226562-13.726563 13.410157-15.992188 34.679688-5.402344 50.683594l-56.601562 56.601563c-14.273438-9.425782-32.964844-8.726563-46.496094 1.738281-13.535156 10.460937-18.917969 28.371093-13.394532 44.558593 5.523438 16.191407 20.730469 27.078126 37.835938 27.085938zm336-208c13.253906 0 24 10.746094 24 24s-10.746094 24-24 24-24-10.746094-24-24 10.746094-24 24-24zm-112 112c11.449219.007812 21.296875 8.105469 23.523438 19.335938 2.226562 11.230468-3.792969 22.472656-14.375 26.84375-10.582032 4.375-22.78125.664062-29.132813-8.863282-6.355469-9.523437-5.09375-22.210937 3.007813-30.300781 4.503906-4.496094 10.613281-7.019531 16.976562-7.015625zm-131.65625-69.769531c3.640625-5.222657 9.214844-8.777344 15.488281-9.871094 1.394531-.238281 2.804688-.359375 4.214844-.359375 4.910156.003906 9.703125 1.519531 13.722656 4.34375 10.855469 7.605469 13.492188 22.570312 5.886719 33.425781-7.601562 10.859375-22.570312 13.496094-33.425781 5.890625-10.855469-7.605468-13.492188-22.570312-5.886719-33.429687zm-109.320312 108.792969c9.375-9.367188 24.566406-9.363282 33.9375.007812 9.371093 9.371094 9.371093 24.566406 0 33.9375-9.371094 9.371094-24.5625 9.375-33.9375.007812-4.515626-4.496093-7.054688-10.605468-7.054688-16.976562s2.539062-12.480469 7.054688-16.976562zm0 0"/><path d="m472 0h-464c-4.417969 0-8 3.582031-8 8v320c0 4.417969 3.582031 8 8 8h184v80h-48c-4.417969 0-8 3.582031-8 8s3.582031 8 8 8h192c4.417969 0 8-3.582031 8-8s-3.582031-8-8-8h-48v-80h184c4.417969 0 8-3.582031 8-8v-320c0-4.417969-3.582031-8-8-8zm-200 416h-64v-80h64zm192-96h-448v-304h448zm0 0"/></g></svg>