<svg height="480pt" viewBox="0 0 480 480" width="480pt" xmlns="http://www.w3.org/2000/svg"><g fill="#9bc9ff"><path d="m210.480469 280.742188c.464843.59375.910156 1.203124 1.359375 1.816406-.449219-.613282-.894532-1.222656-1.359375-1.816406zm0 0"/><path d="m205.550781 275.054688c.328125.335937.617188.699218.9375 1.042968-.320312-.34375-.609375-.707031-.9375-1.042968zm0 0"/><path d="m215.0625 287.488281c.289062.488281.609375.960938.890625 1.457031-.28125-.496093-.601563-.945312-.890625-1.457031zm0 0"/><path d="m219.199219 295.703125c.214843.535156.394531 1.097656.601562 1.601563-.207031-.503907-.386719-1.066407-.601562-1.601563zm0 0"/><path d="m198.503906 268.953125c.503906.382813 1.03125.75 1.527344 1.144531-.496094-.402344-1.023438-.761718-1.527344-1.144531zm0 0"/><path d="m191.863281 264.542969c.648438.367187 1.28125.800781 1.921875 1.160156-.640625-.390625-1.273437-.78125-1.921875-1.160156zm0 0"/><path d="m196.121094 372.800781c4.722656-2.976562 9.160156-6.386719 13.246094-10.191406 1.132812-1.070313 2.117187-2.277344 2.9375-3.601563 4.382812-7.070312 7.621093-14.789062 9.597656-22.871093-3.890625 14.929687-13.050782 27.949219-25.78125 36.664062zm0 0"/><path d="m167.929688 256.542969c.757812.089843 1.503906.226562 2.246093.34375-.742187-.085938-1.488281-.253907-2.246093-.34375zm0 0"/><path d="m185.113281 261.121094c.277344.117187.535157.269531.796875.390625-.261718-.121094-.519531-.273438-.796875-.390625zm0 0"/><path d="m221.65625 303.03125c.207031.753906.398438 1.503906.582031 2.265625-.183593-.761719-.375-1.511719-.582031-2.265625zm0 0"/><path d="m159.703125 384c-1.816406 0-3.582031-.183594-5.359375-.34375 1.777344.144531 3.542969.34375 5.359375.34375zm0 0"/><path d="m176.191406 381.855469-.960937.25zm0 0"/><path d="m223.390625 311.625c.066406.472656.160156.925781.21875 1.398438-.058594-.472657-.152344-.925782-.21875-1.398438zm0 0"/><path d="m151.703125 383.457031c-2.59375-.339843-5.164063-.828125-7.703125-1.457031 2.539062.628906 5.109375 1.117188 7.703125 1.457031zm0 0"/><path d="m168.273438 383.40625c-.371094.050781-.714844.121094-1.082032.160156.359375-.039062.71875-.109375 1.082032-.160156zm0 0"/><path d="m195.078125 373.503906c-1.132813.742188-2.300781 1.441406-3.484375 2.121094 1.207031-.640625 2.328125-1.402344 3.484375-2.121094zm0 0"/><path d="m223.953125 320.953125c0 .695313-.074219 1.375-.105469 2.0625.03125-.6875.097656-1.414063.105469-2.0625zm0 0"/><path d="m223.28125 329.113281c-.136719.941407-.257812 1.894531-.433594 2.824219.167969-.945312.304688-1.882812.433594-2.824219zm0 0"/><path d="m175.902344 258.070312c.691406.175782 1.386718.328126 2.066406.53125-.679688-.203124-1.375-.355468-2.066406-.53125zm0 0"/><path d="m24 352h8.800781c6.628907.003906 12.5625 4.113281 14.894531 10.320312.914063 2.398438 1.898438 4.757813 2.953126 7.078126 2.769531 6.046874 1.496093 13.179687-3.199219 17.890624l-6.25 6.3125c-6.234375 6.246094-6.234375 16.359376 0 22.605469l22.609375 22.609375c6.246094 6.234375 16.359375 6.234375 22.605468 0l6.28125-6.257812c4.710938-4.695313 11.84375-5.96875 17.890626-3.199219 2.316406 1.066406 4.679687 2.050781 7.078124 2.953125 6.210938 2.324219 10.328126 8.257812 10.335938 14.886719v8.800781c0 8.835938 7.164062 16 16 16h32c8.835938 0 16-7.164062 16-16v-8.800781c.003906-6.628907 4.113281-12.5625 10.320312-14.894531 2.398438-.914063 4.757813-1.898438 7.078126-2.953126 6.046874-2.769531 13.179687-1.496093 17.890624 3.199219l6.277344 6.257813c6.246094 6.234375 16.363282 6.234375 22.609375 0l22.609375-22.609375c6.234375-6.246094 6.234375-16.359375 0-22.605469l-6.257812-6.28125c-4.695313-4.710938-5.96875-11.84375-3.199219-17.886719 1.066406-2.320312 2.050781-4.683593 2.953125-7.082031 2.324219-6.222656 8.273438-10.347656 14.917969-10.34375h8.800781c8.835938 0 16-7.164062 16-16v-32c0-8.835938-7.164062-16-16-16h-8.800781c-6.628907-.003906-12.5625-4.113281-14.894531-10.320312-.914063-2.398438-1.898438-4.757813-2.953126-7.078126-2.773437-6.046874-1.496093-13.179687 3.199219-17.890624l6.257813-6.277344c6.234375-6.246094 6.234375-16.363282 0-22.609375l-22.609375-22.609375c-6.246094-6.234375-16.359375-6.234375-22.605469 0l-6.28125 6.257812c-4.710938 4.695313-11.84375 5.96875-17.886719 3.199219-2.320312-1.066406-4.683593-2.050781-7.082031-2.953125-6.222656-2.324219-10.347656-8.273438-10.34375-14.917969v-8.800781c0-8.835938-7.164062-16-16-16h-32c-8.835938 0-16 7.164062-16 16v8.800781c-.003906 6.628907-4.113281 12.5625-10.320312 14.894531-2.398438.914063-4.757813 1.898438-7.078126 2.953126-6.046874 2.769531-13.179687 1.496093-17.890624-3.199219l-6.3125-6.25c-6.246094-6.234375-16.359376-6.234375-22.605469 0l-22.578125 22.625c-6.234375 6.246093-6.234375 16.363281 0 22.609375l6.257812 6.277344c4.695313 4.710937 5.972656 11.84375 3.199219 17.890624-1.066406 2.320313-2.050781 4.679688-2.953125 7.078126-2.332031 6.214843-8.28125 10.328124-14.917969 10.320312h-8.800781c-8.835938 0-16 7.164062-16 16v32c0 8.835938 7.164062 16 16 16zm120-94c5.230469-1.320312 10.605469-1.992188 16-2 2.652344.015625 5.300781.195312 7.929688.542969.757812.089843 1.503906.226562 2.246093.34375 1.945313.304687 3.847657.707031 5.726563 1.183593.691406.175782 1.386718.328126 2.066406.53125 2.429688.695313 4.8125 1.535157 7.144531 2.519532.277344.117187.535157.269531.796875.390625 2.035156.90625 4.019532 1.917969 5.945313 3.03125.648437.378906 1.28125.800781 1.921875 1.160156 1.597656 1.015625 3.199218 2.105469 4.71875 3.25.503906.382813 1.03125.742187 1.527344 1.144531 1.933593 1.546875 3.773437 3.203125 5.519531 4.957032.328125.335937.617187.699218.9375 1.042968 1.40625 1.480469 2.742187 3.03125 4 4.644532.464843.59375.910156 1.203124 1.359375 1.816406 1.144531 1.601562 2.222656 3.203125 3.199218 4.929687.289063.488281.609376.960938.890626 1.457031 1.214843 2.1875 2.296874 4.441407 3.246093 6.757813.214844.535156.390625 1.089844.601563 1.601563.703125 1.863281 1.328125 3.757812 1.855468 5.695312.207032.753906.398438 1.503906.582032 2.265625.492187 2.085937.875 4.199219 1.152344 6.328125.066406.46875.160156.925781.21875 1.398438.261718 2.328124.402343 4.664062.414062 7.007812 0 .320312 0 .632812-.046875.953125 0 .679687-.074219 1.375-.105469 2.0625-.09375 2.054687-.28125 4.089844-.566406 6.097656-.128906.941407-.265625 1.878907-.433594 2.824219-.273437 1.429688-.625 2.824219-.984375 4.222656-1.976562 8.082032-5.214843 15.800782-9.597656 22.871094-.820313 1.324219-1.808594 2.535156-2.9375 3.601562-4.074219 3.792969-8.496094 7.199219-13.207031 10.167969l-1.042969.679688c-1.15625.71875-2.316406 1.480469-3.484375 2.121093-4.839844 2.738282-10.019531 4.835938-15.402344 6.230469l-.960937.246094c-2.292969.5625-4.617188 1-6.957031 1.304687-.363282.050782-.722657.121094-1.082032.160157-2.386718.285156-4.789062.4375-7.191406.457031h-.296875c-1.816406 0-3.582031-.183594-5.359375-.34375-.871094-.082031-1.777344-.070312-2.640625-.183594-2.59375-.347656-5.164063-.835937-7.703125-1.472656-28.261719-7.308594-48.003906-32.808594-48.003906-62s19.742187-54.691406 48.003906-62zm0 0"/><path d="m215.953125 288.945312c1.214844 2.1875 2.296875 4.441407 3.246094 6.757813-.949219-2.316406-2.03125-4.570313-3.246094-6.757813zm0 0"/><path d="m219.800781 297.335938c.703125 1.863281 1.328125 3.761718 1.855469 5.695312-.527344-1.933594-1.152344-3.832031-1.855469-5.695312zm0 0"/><path d="m224 320c-.003906-2.332031-.136719-4.660156-.390625-6.976562.273437 2.632812.390625 5.28125.34375 7.929687.046875-.320313.046875-.632813.046875-.953125zm0 0"/><path d="m222.238281 305.296875c.492188 2.085937.878907 4.199219 1.152344 6.328125-.273437-2.128906-.660156-4.242188-1.152344-6.328125zm0 0"/><path d="m170.175781 256.886719c1.945313.304687 3.847657.707031 5.726563 1.183593-1.878906-.46875-3.78125-.878906-5.726563-1.183593zm0 0"/><path d="m160 256c2.652344.015625 5.300781.195312 7.929688.542969-2.628907-.347657-5.277344-.527344-7.929688-.542969zm0 0"/><path d="m185.921875 261.511719c2.03125.902343 4.015625 1.914062 5.941406 3.03125-1.925781-1.113281-3.910156-2.125-5.941406-3.03125zm0 0"/><path d="m177.96875 258.601562c2.429688.695313 4.8125 1.535157 7.144531 2.519532-2.332031-.984375-4.714843-1.824219-7.144531-2.519532zm0 0"/><path d="m211.839844 282.558594c1.144531 1.601562 2.222656 3.203125 3.199218 4.929687-.976562-1.695312-2.054687-3.34375-3.199218-4.929687zm0 0"/><path d="m206.488281 276.097656c1.398438 1.476563 2.734375 3.03125 4 4.644532-1.257812-1.613282-2.59375-3.164063-4-4.644532zm0 0"/><path d="m193.785156 265.703125c1.597656 1.015625 3.199219 2.105469 4.71875 3.25-1.527344-1.144531-3.097656-2.234375-4.71875-3.25zm0 0"/><path d="m200 270.097656c1.933594 1.546875 3.777344 3.199219 5.519531 4.957032-1.746093-1.753907-3.589843-3.410157-5.519531-4.957032zm0 0"/><path d="m191.59375 375.625c-4.863281 2.691406-10.035156 4.785156-15.402344 6.230469 5.382813-1.394531 10.5625-3.492188 15.402344-6.230469zm0 0"/><path d="m175.199219 382.105469c-2.292969.558593-4.617188.996093-6.960938 1.300781 2.34375-.304688 4.667969-.742188 6.960938-1.300781zm0 0"/><path d="m160 384c2.40625-.011719 4.808594-.152344 7.199219-.433594-2.484375.289063-4.984375.429688-7.488281.417969zm0 0"/><path d="m154.34375 383.640625c-.871094-.082031-1.777344-.074219-2.640625-.183594.863281.109375 1.769531.101563 2.640625.183594zm0 0"/><path d="m223.847656 323.015625c-.085937 2.015625-.289062 4.046875-.566406 6.097656.285156-2.007812.472656-4.042969.566406-6.097656zm0 0"/><path d="m196.121094 372.800781c-.34375.222657-.6875.464844-1.042969.679688zm0 0"/><path d="m222.847656 331.9375c-.253906 1.398438-.640625 2.816406-.984375 4.222656.359375-1.398437.710938-2.792968.984375-4.222656zm0 0"/></g><path d="m296 280h-8.800781c-3.308594.007812-6.269531-2.058594-7.40625-5.167969-.976563-2.558593-2.023438-5.0625-3.152344-7.542969-1.402344-3.015624-.761719-6.589843 1.597656-8.929687l6.273438-6.28125c9.3125-9.390625 9.292969-24.539063-.039063-33.910156l-22.609375-22.609375c-9.382812-9.328125-24.535156-9.328125-33.917969 0l-6.273437 6.265625c-2.34375 2.351562-5.910156 2.992187-8.929687 1.601562-2.476563-1.128906-4.980469-2.179687-7.550782-3.203125-3.125-1.128906-5.203125-4.097656-5.191406-7.421875v-8.800781c0-13.253906-10.746094-24-24-24h-32c-13.253906 0-24 10.746094-24 24v8.800781c.007812 3.308594-2.058594 6.269531-5.167969 7.40625-2.558593.976563-5.0625 2.023438-7.542969 3.152344-3.019531 1.394531-6.585937.757813-8.929687-1.597656l-6.28125-6.273438c-9.378906-9.324219-24.527344-9.324219-33.910156 0l-22.609375 22.679688c-9.328125 9.382812-9.328125 24.539062 0 33.921875l6.265625 6.269531c2.363281 2.339844 3 5.914063 1.601562 8.929687-1.128906 2.480469-2.179687 4.984376-3.160156 7.550782-1.144531 3.125-4.136719 5.195312-7.464844 5.160156h-8.800781c-13.253906 0-24 10.746094-24 24v32c0 13.253906 10.746094 24 24 24h8.800781c3.308594-.007812 6.269531 2.058594 7.40625 5.167969.976563 2.558593 2.023438 5.0625 3.152344 7.542969 1.402344 3.015624.761719 6.589843-1.597656 8.929687l-6.273438 6.28125c-9.324219 9.378906-9.324219 24.527344 0 33.910156l22.609375 22.609375c9.382813 9.328125 24.535156 9.328125 33.917969 0l6.273437-6.265625c2.34375-2.351562 5.910157-2.992187 8.925782-1.601562 2.480468 1.128906 4.984375 2.179687 7.554687 3.203125 3.140625 1.113281 5.234375 4.089844 5.230469 7.421875v8.800781c0 13.253906 10.746094 24 24 24h32c13.253906 0 24-10.746094 24-24v-8.800781c-.007812-3.308594 2.058594-6.269531 5.167969-7.40625 2.558593-.976563 5.0625-2.023438 7.542969-3.152344 3.019531-1.394531 6.585937-.757813 8.929687 1.597656l6.28125 6.273438c9.394531 9.308593 24.539063 9.289062 33.910156-.039063l22.609375-22.609375c9.328125-9.382812 9.328125-24.535156 0-33.917969l-6.265625-6.273437c-2.363281-2.339844-3-5.914063-1.601562-8.929687 1.128906-2.476563 2.179687-4.980469 3.203125-7.550782 1.128906-3.125 4.097656-5.203125 7.421875-5.191406h8.800781c13.253906 0 24-10.746094 24-24v-32c0-13.253906-10.746094-24-24-24zm8 56c0 4.417969-3.582031 8-8 8h-8.800781c-9.945313.035156-18.84375 6.183594-22.398438 15.472656-.847656 2.238282-1.765625 4.445313-2.753906 6.617188-4.113281 9.078125-2.203125 19.753906 4.800781 26.847656l6.257813 6.261719c1.5 1.5 2.34375 3.539062 2.34375 5.660156 0 2.125-.84375 4.160156-2.34375 5.660156l-22.609375 22.609375c-3.125 3.121094-8.1875 3.121094-11.3125 0l-6.273438-6.265625c-7.085937-7.011719-17.765625-8.917969-26.847656-4.800781-2.167969.984375-4.375 1.90625-6.597656 2.753906-9.28125 3.554688-15.425782 12.445313-15.464844 22.382813v8.800781c0 4.417969-3.582031 8-8 8h-32c-4.417969 0-8-3.582031-8-8v-8.800781c-.035156-9.945313-6.183594-18.84375-15.472656-22.398438-2.238282-.847656-4.445313-1.765625-6.617188-2.753906-9.078125-4.109375-19.753906-2.203125-26.847656 4.800781l-6.261719 6.257813c-1.5 1.5-3.539062 2.34375-5.660156 2.34375-2.125 0-4.160156-.84375-5.660156-2.34375l-22.609375-22.585938c-3.121094-3.125-3.121094-8.1875 0-11.3125l6.265625-6.269531c7.003906-7.09375 8.914062-17.769531 4.800781-26.847656-.984375-2.167969-1.90625-4.378906-2.753906-6.601563-3.546875-9.289062-12.4375-15.445312-22.382813-15.488281h-8.800781c-4.417969 0-8-3.582031-8-8v-32c0-4.417969 3.582031-8 8-8h8.800781c9.945313-.035156 18.84375-6.183594 22.398438-15.472656.847656-2.238282 1.765625-4.445313 2.753906-6.617188 4.113281-9.078125 2.203125-19.753906-4.800781-26.847656l-6.289063-6.261719c-1.5-1.5-2.34375-3.539062-2.34375-5.660156 0-2.125.84375-4.160156 2.34375-5.660156l22.609375-22.609375c3.125-3.121094 8.1875-3.121094 11.3125 0l6.269532 6.265625c7.089843 7.011719 17.769531 8.917969 26.847656 4.800781 2.167968-.984375 4.378906-1.90625 6.601562-2.753906 9.292969-3.542969 15.453125-12.4375 15.496094-22.382813v-8.800781c0-4.417969 3.582031-8 8-8h32c4.417969 0 8 3.582031 8 8v8.800781c.035156 9.945313 6.183594 18.84375 15.472656 22.398438 2.238282.847656 4.445313 1.765625 6.617188 2.753906 9.078125 4.121094 19.757812 2.210937 26.847656-4.800781l6.261719-6.257813c3.136719-3.101562 8.183593-3.101562 11.320312 0l22.609375 22.609375c3.121094 3.125 3.121094 8.1875 0 11.3125l-6.265625 6.273438c-7.003906 7.089844-8.914062 17.765625-4.800781 26.847656.984375 2.167969 1.90625 4.375 2.753906 6.597656 3.554688 9.28125 12.445313 15.425782 22.382813 15.464844h8.800781c4.417969 0 8 3.582031 8 8zm0 0" fill="#1e81ce"/><path d="m231.839844 316.800781c-.078125-1.921875-.214844-3.832031-.449219-5.738281-.253906-2.046875-.558594-4.078125-.984375-6.070312-.277344-1.304688-.644531-2.59375-1-3.886719-.445312-1.648438-.949219-3.273438-1.511719-4.875-.390625-1.109375-.796875-2.214844-1.214843-3.308594-1.027344-2.5625-2.207032-5.066406-3.527344-7.488281-.105469-.1875-.167969-.386719-.273438-.570313-2.082031-3.703125-4.488281-7.214843-7.199218-10.488281-.230469-.285156-.496094-.558594-.734376-.839844-1.105468-1.304687-2.242187-2.566406-3.433593-3.773437-.625-.648438-1.28125-1.257813-1.9375-1.882813-.796875-.742187-1.597657-1.480468-2.398438-2.183594-.96875-.84375-1.960937-1.65625-2.96875-2.449218l-1.3125-.972656c-12.378906-9.273438-27.429687-14.28125-42.894531-14.273438-.800781 0-1.601562.121094-2.398438.152344-1.707031.046875-3.417968.144531-5.136718.320312-.90625.09375-1.816406.199219-2.722656.328125-2.605469.34375-5.195313.824219-7.75 1.445313-31.8125 8.222656-54.027344 36.925781-54.015626 69.78125.011719 32.855468 22.253907 61.539062 54.070313 69.734375.128906 0 .265625.039062.402344.070312 2.761719.6875 5.558593 1.222657 8.382812 1.601563 1.863281.230468 3.726563.277344 5.601563.367187 1.246094.0625 2.398437.246094 3.703125.246094 2.277343 0 4.648437-.152344 7.0625-.390625.257812 0 .511719-.070312.800781-.105469 1.945312-.214843 3.910156-.503906 5.921875-.902343.796875-.152344 1.542969-.351563 2.308594-.527344 1.410156-.328125 2.808593-.671875 4.25-1.097656 1.121093-.335938 2.207031-.726563 3.304687-1.113282 1.09375-.382812 2.230469-.796875 3.367188-1.230468 1.136718-.433594 2.085937-.925782 3.121094-1.40625 1.34375-.617188 2.679687-1.226563 4-1.945313h.046874c7.464844-3.996094 14.363282-8.976563 20.503907-14.808594 1.660156-1.546875 3.101562-3.3125 4.289062-5.246093 6.242188-10.011719 10.34375-21.207032 12.046875-32.882813.222656-1.542969.425782-3.085937.542969-4.664063.113281-1.445312.191406-2.886718.226563-4.328124 0-.453126.0625-.886719.0625-1.34375.007812-1.125-.105469-2.167969-.152344-3.253907zm-85.894532-51.039062c4.59375-1.160157 9.316407-1.753907 14.054688-1.761719 2.289062.011719 4.570312.167969 6.839844.464844.609375.070312 1.207031.183594 1.808594.269531 1.726562.273437 3.441406.617187 5.128906 1.050781.550781.144532 1.101562.269532 1.648437.421875 4.253907 1.230469 8.347657 2.953125 12.199219 5.136719.613281.359375 1.214844.734375 1.824219 1.113281 1.261719.800781 2.488281 1.597657 3.695312 2.511719.648438.472656 1.304688.933594 1.925781 1.4375 1.570313 1.253906 3.074219 2.589844 4.503907 4 .570312.578125 1.089843 1.210938 1.640625 1.808594.921875 1 1.816406 2.023437 2.671875 3.105468.59375.742188 1.160156 1.511719 1.722656 2.289063.796875 1.152344 1.597656 2.351563 2.320313 3.566406.398437.664063.796874 1.3125 1.207031 1.992188 1.03125 1.898437 1.949219 3.855469 2.75 5.863281.320312.800781.59375 1.601562.882812 2.402344.519531 1.46875.964844 2.957031 1.359375 4.460937.199219.800781.421875 1.511719.589844 2.289063.46875 2.164062.808594 4.351562 1.015625 6.550781.050781.585937.050781 1.175781.089844 1.761719.113281 1.839844.144531 3.6875.070312 5.542968 0 .664063-.054687 1.328126-.09375 1.984376-.144531 1.9375-.394531 3.871093-.722656 5.816406-2.988281 16.632812-13.316406 31.03125-28.109375 39.199218-.992188.519532-1.96875 1.007813-2.945312 1.457032l-.664063.320312c-4.648437 2.109375-9.554687 3.59375-14.589844 4.414063-.355469.058593-.714843.121093-1.074219.167969-1 .144531-1.984374.265624-2.960937.355468-1.285156.109375-2.582031.175782-3.902344.199219-.558593 0-1.113281 0-1.671875 0-1.894531-.023437-3.785156-.140625-5.664062-.351563l-.960938-.113281c-2.199218-.289062-4.382812-.699219-6.535156-1.230469-24.769531-6.34375-42.101562-28.65625-42.113281-54.222656-.015625-25.570312 17.292969-47.902344 42.058593-54.265625zm0 0" fill="#1e81ce"/><path d="m456 168h-25.160156c-3.355469.035156-6.355469-2.078125-7.457032-5.246094-2.480468-7.433594-5.480468-14.679687-8.984374-21.691406-1.484376-3.027344-.867188-6.664062 1.539062-9.03125l17.839844-17.863281c9.363281-9.371094 9.363281-24.558594 0-33.929688l-34.015625-33.957031c-9.371094-9.363281-24.558594-9.363281-33.929688 0l-17.832031 17.824219c-2.363281 2.402343-5.996094 3.023437-9.023438 1.542969-7.011718-3.519532-14.261718-6.539063-21.695312-9.03125-3.183594-1.089844-5.3125-4.09375-5.28125-7.457032v-25.160156c0-13.253906-10.746094-24-24-24h-48c-13.253906 0-24 10.746094-24 24v25.160156c.035156 3.355469-2.078125 6.355469-5.246094 7.457032-7.433594 2.492187-14.683594 5.507812-21.691406 9.023437-3.023438 1.492187-6.667969.871094-9.03125-1.535156l-17.863281-17.839844c-9.382813-9.339844-24.546875-9.339844-33.929688 0l-33.949219 33.949219c-9.371093 9.375-9.371093 24.566406 0 33.9375l26.230469 26.28125c3.136719 3.035156 8.125 3 11.214844-.082032 3.089844-3.082031 3.140625-8.074218.113281-11.214843l-26.246094-26.273438c-3.125-3.125-3.125-8.1875 0-11.3125l33.949219-33.949219c3.125-3.125 8.1875-3.125 11.3125 0l17.871094 17.839844c7.234375 7.273438 18.3125 9.089844 27.488281 4.511719 6.339844-3.175781 12.890625-5.898437 19.609375-8.152344 9.699219-3.285156 16.210938-12.402343 16.167969-22.640625v-25.160156c0-4.417969 3.582031-8 8-8h48c4.417969 0 8 3.582031 8 8v25.160156c-.039062 10.238282 6.472656 19.351563 16.167969 22.632813 6.722656 2.253906 13.277343 4.980469 19.617187 8.160156 9.179688 4.554687 20.242188 2.734375 27.480469-4.519531l17.871094-17.832032c3.125-3.125 8.1875-3.125 11.3125 0l33.949219 33.957032c3.121093 3.125 3.121093 8.183594 0 11.304687l-17.839844 17.871094c-7.265625 7.238281-9.082032 18.3125-4.511719 27.488281 3.175781 6.339844 5.898437 12.890625 8.152344 19.609375 3.28125 9.699219 12.402343 16.210938 22.640625 16.167969h25.160156c4.417969 0 8 3.582031 8 8v48c0 4.417969-3.582031 8-8 8h-25.160156c-10.238282-.039062-19.351563 6.472656-22.632813 16.167969-2.253906 6.722656-4.980469 13.277343-8.160156 19.617187-4.5625 9.175782-2.742187 20.246094 4.519531 27.480469l17.839844 17.871094c3.125 3.125 3.125 8.1875 0 11.3125l-33.964844 33.949219c-3.125 3.121093-8.183594 3.121093-11.304687 0l-26.289063-26.230469c-2.011718-2.078125-4.988281-2.90625-7.78125-2.171875-2.796875.738281-4.976562 2.925781-5.707031 5.722656-.726563 2.796875.109375 5.773438 2.191406 7.777344l26.28125 26.230468c9.371094 9.367188 24.558594 9.367188 33.929688 0l33.949219-33.941406c9.371093-9.375 9.371093-24.566406 0-33.9375l-17.816407-17.847656c-2.398437-2.363281-3.019531-5.996094-1.542969-9.023438 3.519532-7.011718 6.539063-14.261718 9.03125-21.695312 1.089844-3.183594 4.09375-5.3125 7.457032-5.28125h25.160156c13.253906 0 24-10.746094 24-24v-48c0-13.253906-10.746094-24-24-24zm0 0" fill="#1e81ce"/><path d="m337.535156 142.464844c-40.636718-40.554688-106.433594-40.554688-147.070312 0-3.03125 3.136718-2.988282 8.128906.097656 11.214844 3.085938 3.085937 8.074219 3.128906 11.214844.097656 22.179687-22.480469 54.703125-31.351563 85.226562-23.246094 30.519532 8.105469 54.359375 31.945312 62.464844 62.464844 8.105469 30.523437-.765625 63.046875-23.246094 85.226562-2.078125 2.011719-2.914062 4.984375-2.179687 7.78125.730469 2.796875 2.914062 4.980469 5.714843 5.714844 2.796876.730469 5.769532-.101562 7.777344-2.183594 40.554688-40.636718 40.554688-106.433594 0-147.070312zm0 0" fill="#1e81ce"/></svg>