<svg height="480pt" viewBox="0 -20 480.02861 480" width="480pt" xmlns="http://www.w3.org/2000/svg"><path d="m104 144.015625h-96v288h96zm-48 264c-8.835938 0-16-7.164063-16-16s7.164062-16 16-16 16 7.164063 16 16-7.164062 16-16 16zm0 0" fill="#9bc9ff"/><g fill="#1e81ce"><path d="m56 368.015625c-13.253906 0-24 10.742187-24 24 0 13.253906 10.746094 24 24 24s24-10.746094 24-24c0-13.257813-10.746094-24-24-24zm0 32c-4.417969 0-8-3.582031-8-8s3.582031-8 8-8 8 3.582031 8 8-3.582031 8-8 8zm0 0"/><path d="m468.335938 292.269531c10.492187-10.535156 14.296874-26.007812 9.886718-40.207031-4.121094-11.574219-13.125-20.75-24.621094-25.089844 9.59375-10.511718 12.890626-25.328125 8.664063-38.917968-6.152344-16.5625-21.800781-27.679688-39.464844-28.039063h-131.703125l.175782-.519531c8.4375-25.285156 12.734374-51.769532 12.726562-78.425782v-25.054687c-.035156-30.914063-25.085938-55.9648438-56-56h-16c-13.253906 0-24 10.742187-24 24v48c-.085938 54.28125-41.878906 99.378906-96 103.589844v-31.589844c0-4.417969-3.582031-8-8-8h-96c-4.417969 0-8 3.582031-8 8v288c0 4.417969 3.582031 8 8 8h96c4.417969 0 8-3.582031 8-8v-27.042969l11.542969 5.800782c27.851562 13.933593 58.558593 21.203124 89.695312 21.242187h178.761719c15.726562-.011719 29.988281-9.238281 36.445312-23.582031 6.457032-14.339844 3.910157-31.132813-6.507812-42.914063 5.394531-2.035156 10.300781-5.1875 14.398438-9.25 14.042968-14.085937 15.605468-36.347656 3.664062-52.253906 10.628906-.007813 20.820312-4.230469 28.335938-11.746094zm-372.335938 131.746094h-80v-272h80zm280-136c-4.417969 0-8 3.582031-8 8s3.582031 8 8 8h32c13.253906 0 24 10.742187 24 24 0 13.253906-10.746094 24-24 24h-48c-4.417969 0-8 3.582031-8 8s3.582031 8 8 8h32c13.253906 0 24 10.742187 24 24 0 13.253906-10.746094 24-24 24h-178.761719c-28.644531-.039063-56.894531-6.726563-82.519531-19.539063l-18.71875-9.398437v-195.328125c62.992188-4.292969 111.917969-56.597656 112-119.734375v-48c0-4.417969 3.582031-8 8-8h16c22.082031.023437 39.972656 17.917969 40 40v25.054687c.007812 24.933594-4.011719 49.707032-11.902344 73.359376l-3.691406 11.054687c-.8125 2.441406-.402344 5.125 1.101562 7.210937 1.503907 2.085938 3.921876 3.320313 6.492188 3.320313h142.800781c10.578125.390625 19.972657 6.871094 24.09375 16.621094 2.363281 7.316406 1.082031 15.316406-3.449219 21.523437-4.53125 6.210938-11.761718 9.871094-19.445312 9.855469h-40c-4.417969 0-8 3.582031-8 8s3.582031 8 8 8h54.800781c10.578125.390625 19.972657 6.871094 24.09375 16.621094 2.363281 7.316406 1.082031 15.316406-3.449219 21.523437-4.53125 6.210938-11.761718 9.871094-19.445312 9.855469zm0 0"/></g></svg>