<svg height="480pt" viewBox="0 0 480.65502 480" width="480pt" xmlns="http://www.w3.org/2000/svg"><g fill="#9bc9ff"><path d="m356.761719 277.726562-28.3125 28.320313-22.558594 22.558594-28.320313 28.3125 101.824219 101.824219c18.746094 18.742187 49.136719 18.742187 67.878907 0l11.3125-11.3125c18.746093-18.742188 18.746093-49.132813 0-67.878907zm0 0"/><path d="m305.890625 328.601562 22.558594-22.558593.007812.003906-22.5625 22.558594zm0 0"/><path d="m326.851562 228.445312c40.203126 10.765626 83.0625-1.648437 111.285157-32.242187 28.222656-30.589844 37.15625-74.308594 23.195312-113.515625l-60.320312 60.238281-50.878907-16.960937-16.960937-50.878906 60.238281-60.320313c-39.207031-13.960937-82.925781-5.03125-113.515625 23.195313-30.59375 28.222656-43.007812 71.082031-32.242187 111.285156l-38 38-22.5625 22.558594-165.039063 165.042968c-18.722656 18.769532-18.722656 49.148438 0 67.917969l11.28125 11.28125c18.769531 18.722656 49.148438 18.722656 67.917969 0zm0 0"/></g><path d="m464.242188 373.894531-101.824219-101.824219c-3.121094-3.121093-8.1875-3.121093-11.3125 0l-22.65625 22.664063-28.285157-28.289063 29.152344-29.117187c40.167969 9.007813 82.15625-3.113281 111.34375-32.144531 32.609375-32.855469 43.5625-81.460938 28.199219-125.128906-.917969-2.585938-3.09375-4.519532-5.769531-5.128907-2.675782-.59375-5.472656.210938-7.421875 2.136719l-56.800781 56.753906-42.398438-14.136718-14.136719-42.402344 56.75-56.800782c1.941407-1.941406 2.746094-4.742187 2.140625-7.417968-.609375-2.675782-2.542968-4.855469-5.132812-5.773438-41.210938-14.679687-87.144532-5.769531-119.878906 23.253906-32.738282 29.023438-47.082032 73.5625-37.441407 116.234376l-29.117187 29.152343-101.976563-102.046875-3.199219-34.488281c-.265624-2.859375-2.042968-5.355469-4.65625-6.542969l-62.226562-28.242187c-3.027344-1.382813-6.597656-.746094-8.957031 1.601562l-22.5625 22.558594c-2.34375 2.363281-2.980469 5.933594-1.597657 8.960937l28.238282 62.238282c1.1875 2.621094 3.6875 4.402344 6.550781 4.664062l34.488281 3.203125 102.015625 101.972657-159.398437 159.386718c-21.828125 21.886719-21.828125 57.3125 0 79.199219l11.28125 11.28125c21.886718 21.820313 57.308594 21.820313 79.199218 0l159.4375-159.351563 28.289063 28.277344-22.664063 22.671875c-3.121093 3.125-3.121093 8.1875 0 11.3125l101.824219 101.816407c21.882813 21.839843 57.316407 21.839843 79.199219 0l11.3125-11.3125c21.871094-21.871094 21.871094-57.328126 0-79.199219zm-265.902344-186.65625-11.257813 11.257813-104.09375-104c-1.320312-1.324219-3.0625-2.140625-4.921875-2.3125l-32.734375-3.03125-24-52.960938 14.71875-14.730468 52.960938 24 3.015625 32.730468c.171875 1.859375.984375 3.597656 2.304687 4.917969m1.238281 365.28125c-15.640624 15.605469-40.964843 15.605469-56.605468 0l-11.28125-11.28125c-15.609375-15.640625-15.609375-40.964844 0-56.605469l225.597656-225.601562c2.023438-2.019532 2.8125-4.964844 2.074219-7.726563-9.273438-35.058593.351562-72.414062 25.410156-98.628906 25.058594-26.210937 61.941406-37.507813 97.382813-29.820313l-50.640626 50.703126c-2.144531 2.144531-2.890624 5.316406-1.929687 8.191406l16.960937 50.882812c.796876 2.386719 2.675782 4.261719 5.0625 5.054688l50.882813 16.953125c2.867187.957031 6.03125.210937 8.175781-1.921875l50.710938-50.640625c7.8125 35.460937-3.445313 72.429687-29.695313 97.519531-26.25 25.085938-63.691406 34.660156-98.761719 25.25-2.757812-.753906-5.707031.039062-7.71875 2.070312zm182.03125-159.382813 11.25-11.25 28.320313 28.289063-11.28125 11.28125zm175.328126 152.796876-11.3125 11.28125c-15.628907 15.59375-40.933594 15.59375-56.566407 0l-96.167969-96.160157 67.878907-67.886719 96.167969 96.167969c15.621093 15.621094 15.621093 40.945313 0 56.566407zm0 0" fill="#1e81ce"/></svg>