<svg height="480pt" viewBox="0 0 480 480" width="480pt" xmlns="http://www.w3.org/2000/svg"><g fill="#9bc9ff"><path d="m240 472c128.128906 0 232-103.871094 232-232s-103.871094-232-232-232-232 103.871094-232 232 103.871094 232 232 232zm166.28125-328-138.5625 80zm-193.992188 80c.175782-.3125.421876-.550781.613282-.855469.621094-.964843 1.292968-1.898437 2.007812-2.792969.609375-.800781 1.210938-1.597656 1.882813-2.273437.671875-.671875 1.488281-1.414063 2.261719-2.09375.777343-.679687 1.601562-1.382813 2.402343-1.984375s1.726563-1.089844 2.605469-1.601562c.882812-.511719 1.761719-1.03125 2.691406-1.453126.953125-.414062 1.925782-.777343 2.917969-1.089843.976563-.335938 1.945313-.679688 2.945313-.917969 1-.242188 1.933593-.34375 2.917968-.488281 1.132813-.175781 2.273438-.289063 3.417969-.34375.359375 0 .6875-.105469 1.046875-.105469.609375 0 1.183594.144531 1.785156.175781 1.15625.054688 2.308594.171875 3.453125.351563 1.035157.167968 2.019531.417968 3.007813.679687.992187.265625 1.976562.554688 2.945312.914063 1.09375.417968 2.160156.894531 3.199219 1.429687.539063.273438 1.105469.433594 1.601563.738281.3125.175782.550781.421876.847656.613282.972656.617187 1.90625 1.289062 2.800781 2.007812.800781.609375 1.597656 1.210938 2.269531 1.882813.675782.671875 1.417969 1.488281 2.097656 2.261719.679688.777343 1.382813 1.601562 1.984376 2.402343.601562.800781 1.085937 1.726563 1.601562 2.613281.511719.890626 1.03125 1.753907 1.453125 2.683594.414063.953125.777344 1.933594 1.089844 2.925782.335937.976562.679687 1.9375.917969 2.9375.242187 1 .34375 1.933593.488281 2.917968.175781 1.132813.289062 2.273438.34375 3.417969 0 .359375.105469.6875.105469 1.046875 0 .617188-.144532 1.183594-.183594 1.785156-.050782 1.15625-.167969 2.308594-.34375 3.453125-.167969 1.035157-.417969 2.019531-.679688 3.007813-.265625.992187-.554687 1.976562-.914062 2.945312-.417969 1.09375-.894532 2.160156-1.429688 3.199219-.273437.546875-.433594 1.113281-.738281 1.601563-.175781.3125-.421875.550781-.613281.855468-.621094.96875-1.289063 1.898438-2.011719 2.792969-.605469.800781-1.207031 1.597656-1.878906 2.269531-.671875.675782-1.488281 1.417969-2.261719 2.097656-.777344.679688-1.601562 1.382813-2.402344 1.984376-.800781.601562-1.71875 1.085937-2.597656 1.601562-.882812.511719-1.761719 1.03125-2.691406 1.453125-.953125.414063-1.933594.777344-2.925782 1.089844-.976562.335937-1.9375.679687-2.9375.917969-1 .242187-1.933593.34375-2.917968.488281-1.132813.175781-2.273438.289062-3.417969.34375-.359375 0-.6875.105469-1.046875.105469-.617188 0-1.183594-.144532-1.785156-.183594-1.15625-.050782-2.308594-.167969-3.453125-.34375-1.035157-.167969-2.019531-.417969-3.019531-.679688-1-.265625-1.964844-.554687-2.933594-.914062-1.09375-.417969-2.160156-.894532-3.199219-1.429688-.546875-.273437-1.113281-.433594-1.601563-.738281-.3125-.175781-.550781-.421875-.855468-.613281-.964844-.621094-1.898438-1.292969-2.792969-2.011719-.800781-.605469-1.597656-1.207031-2.269531-1.878906-.675782-.671875-1.417969-1.488281-2.097656-2.261719-.679688-.777344-1.382813-1.601562-1.984376-2.402344-.601562-.800781-1.085937-1.726562-1.601562-2.613281-.511719-.890625-1.03125-1.753906-1.453125-2.683594-.425781-.925781-.753906-1.933593-1.089844-2.917969-.335937-.984374-.679687-1.945312-.917969-2.945312-.242187-1-.34375-1.933594-.488281-2.917969-.175781-1.132812-.289062-2.273437-.34375-3.417969 0-.359374-.105469-.6875-.105469-1.046874 0-.617188.144532-1.183594.183594-1.785157.050782-1.15625.167969-2.308593.34375-3.453125.167969-1.035156.417969-2.019531.679688-3.019531.265625-1 .554687-1.964844.914062-2.933594.417969-1.09375.894532-2.160156 1.429688-3.199219.273437-.539062.433594-1.105468.738281-1.601562l-83.144531-48zm0 0"/><path d="m267.710938 256c.304687-.527344.464843-1.097656.738281-1.601562-.425781.847656-.847657 1.699218-1.351563 2.496093.191406-.34375.4375-.582031.613282-.894531zm0 0"/><path d="m270.792969 248.246094c-.273438 1-.5625 1.992187-.914063 2.945312.359375-.96875.648438-1.953125.914063-2.945312zm0 0"/><path d="m208.449219 244.464844c-.175781-1.132813-.292969-2.273438-.34375-3.417969.054687 1.144531.167969 2.285156.34375 3.417969zm0 0"/><path d="m271.816406 241.785156c-.054687 1.15625-.167968 2.308594-.34375 3.453125.175782-1.144531.292969-2.296875.34375-3.453125zm0 0"/><path d="m216 260.945312c-.6875-.800781-1.375-1.601562-1.984375-2.402343.585937.839843 1.28125 1.609375 1.984375 2.402343zm0 0"/><path d="m271.550781 235.535156c.175781 1.132813.292969 2.273438.34375 3.417969-.054687-1.144531-.167969-2.285156-.34375-3.417969zm0 0"/><path d="m220.351562 265.089844c-.800781-.609375-1.597656-1.203125-2.273437-1.882813.714844.671875 1.496094 1.273438 2.273437 1.882813zm0 0"/><path d="m224 267.710938c.527344.304687 1.097656.464843 1.601562.738281-.847656-.425781-1.699218-.847657-2.496093-1.351563.34375.191406.582031.4375.894531.613282zm0 0"/><path d="m231.742188 270.792969c-.988282-.273438-1.980469-.5625-2.933594-.914063.96875.359375 1.953125.648438 2.933594.914063zm0 0"/><path d="m244.464844 271.550781c-1.132813.175781-2.273438.292969-3.417969.34375 1.144531-.054687 2.285156-.167969 3.417969-.34375zm0 0"/><path d="m250.320312 270.144531c-.960937.355469-1.941406.664063-2.9375.917969 1-.238281 1.960938-.582031 2.9375-.917969zm0 0"/><path d="m209.855469 250.328125c-.335938-.976563-.679688-1.9375-.917969-2.945313.238281 1 .582031 1.96875.917969 2.945313zm0 0"/><path d="m212.398438 255.929688c-.511719-.882813-1.03125-1.753907-1.453126-2.683594.421876.929687.941407 1.792968 1.453126 2.683594zm0 0"/><path d="m260.945312 264c-.800781.6875-1.601562 1.375-2.402343 1.984375.839843-.585937 1.609375-1.28125 2.402343-1.984375zm0 0"/><path d="m255.9375 267.601562c-.890625.503907-1.753906 1.03125-2.691406 1.453126.929687-.421876 1.800781-.941407 2.691406-1.453126zm0 0"/><path d="m265.089844 259.648438c-.609375.800781-1.203125 1.597656-1.882813 2.273437.671875-.714844 1.273438-1.496094 1.882813-2.273437zm0 0"/><path d="m208.183594 238.214844c.054687-1.15625.167968-2.308594.34375-3.453125-.175782 1.144531-.292969 2.296875-.34375 3.453125zm0 0"/><path d="m235.535156 208.449219c1.132813-.175781 2.273438-.292969 3.417969-.34375-1.144531.054687-2.285156.167969-3.417969.34375zm0 0"/><path d="m241.785156 208.175781c1.167969.070313 2.328125.167969 3.453125.351563-1.144531-.179688-2.296875-.296875-3.453125-.351563zm0 0"/><path d="m219.054688 216c.800781-.6875 1.554687-1.375 2.402343-1.984375-.839843.585937-1.609375 1.28125-2.402343 1.984375zm0 0"/><path d="m224.0625 212.398438c.890625-.511719 1.761719-1.03125 2.691406-1.453126-.929687.421876-1.800781.941407-2.691406 1.453126zm0 0"/><path d="m229.671875 209.855469c.976563-.335938 1.9375-.679688 2.945313-.917969-1 .238281-1.96875.582031-2.945313.917969zm0 0"/><path d="m270.144531 229.679688c.355469.960937.664063 1.941406.917969 2.9375-.238281-1-.582031-1.960938-.917969-2.9375zm0 0"/><path d="m214.910156 220.351562c.609375-.800781 1.203125-1.597656 1.882813-2.273437-.671875.714844-1.273438 1.496094-1.882813 2.273437zm0 0"/><path d="m209.207031 231.742188c.273438-.988282.5625-1.980469.914063-2.933594-.359375.96875-.648438 1.953125-.914063 2.933594zm0 0"/><path d="m256 212.289062c-.527344-.304687-1.097656-.464843-1.601562-.738281.839843.425781 1.691406.847657 2.480468 1.351563-.328125-.191406-.566406-.4375-.878906-.613282zm0 0"/><path d="m212.902344 223.144531c-.191406.304688-.4375.542969-.613282.855469-.304687.527344-.464843 1.097656-.738281 1.601562.449219-.800781.847657-1.65625 1.351563-2.457031zm0 0"/><path d="m264 219.054688c.6875.800781 1.375 1.601562 1.984375 2.402343-.585937-.839843-1.28125-1.609375-1.984375-2.402343zm0 0"/><path d="m248.246094 209.207031c1 .273438 1.992187.554688 2.945312.914063-.96875-.359375-1.953125-.648438-2.945312-.914063zm0 0"/><path d="m267.601562 224.070312c.511719.882813 1.03125 1.753907 1.453126 2.683594-.421876-.929687-.941407-1.792968-1.453126-2.683594zm0 0"/><path d="m238.214844 271.816406c-1.15625-.054687-2.308594-.167968-3.453125-.34375 1.144531.175782 2.296875.292969 3.453125.34375zm0 0"/><path d="m259.648438 214.910156c.800781.609375 1.597656 1.203125 2.273437 1.882813-.714844-.671875-1.496094-1.273438-2.273437-1.882813zm0 0"/><path d="m223.144531 267.097656c-.964843-.621094-1.898437-1.292968-2.792969-2.007812.894532.714844 1.828126 1.386718 2.792969 2.007812zm0 0"/><path d="m234.761719 271.472656c-1.007813-.167968-2.019531-.417968-3.019531-.679687 1 .261719 1.984374.511719 3.019531.679687zm0 0"/><path d="m228.800781 269.878906c-1.09375-.417968-2.160156-.894531-3.199219-1.429687 1.039063.535156 2.105469 1.011719 3.199219 1.429687zm0 0"/><path d="m210.121094 228.800781c.417968-1.09375.898437-2.160156 1.429687-3.199219-.535156 1.039063-1.011719 2.105469-1.429687 3.199219zm0 0"/><path d="m208.527344 234.761719c.167968-1.007813.417968-2.019531.679687-3.019531-.261719 1-.511719 1.984374-.679687 3.019531zm0 0"/><path d="m208.9375 247.382812c-.226562-.957031-.34375-1.933593-.488281-2.917968.144531.984375.261719 1.933594.488281 2.917968zm0 0"/><path d="m208 240c0 .359375.097656.6875.105469 1.046875 0-.941406 0-1.886719.078125-2.832031-.039063.601562-.183594 1.167968-.183594 1.785156zm0 0"/><path d="m210.945312 253.246094c-.433593-.949219-.753906-1.933594-1.089843-2.917969.335937.984375.65625 1.976563 1.089843 2.917969zm0 0"/><path d="m218.078125 263.199219c-.730469-.714844-1.425781-1.46875-2.078125-2.253907.664062.773438 1.328125 1.558594 2.078125 2.253907zm0 0"/><path d="m214 258.542969c-.59375-.800781-1.089844-1.726563-1.601562-2.613281.511718.871093 1.007812 1.78125 1.601562 2.613281zm0 0"/><path d="m240 208c-.359375 0-.6875.097656-1.046875.105469.941406 0 1.886719 0 2.832031.070312-.601562-.03125-1.175781-.175781-1.785156-.175781zm0 0"/><path d="m272 240c0-.359375-.097656-.6875-.105469-1.046875 0 .941406 0 1.886719-.078125 2.832031.039063-.601562.183594-1.167968.183594-1.785156zm0 0"/><path d="m271.472656 245.238281c-.167968 1.007813-.417968 2.019531-.679687 3.007813.261719-.988282.511719-1.972656.679687-3.007813zm0 0"/><path d="m271.0625 232.617188c.226562.957031.34375 1.933593.488281 2.917968-.144531-.984375-.261719-1.933594-.488281-2.917968zm0 0"/><path d="m267.097656 256.855469c-.621094.964843-1.289062 1.898437-2.007812 2.792969.71875-.894532 1.386718-1.824219 2.007812-2.792969zm0 0"/><path d="m263.199219 261.921875c-.714844.734375-1.472657 1.4375-2.261719 2.09375.78125-.679687 1.566406-1.34375 2.261719-2.09375zm0 0"/><path d="m269.878906 251.199219c-.417968 1.09375-.894531 2.160156-1.429687 3.199219.535156-1.039063 1.011719-2.105469 1.429687-3.199219zm0 0"/><path d="m269.054688 226.753906c.433593.949219.753906 1.933594 1.089843 2.925782-.3125-.992188-.675781-1.972657-1.089843-2.925782zm0 0"/><path d="m258.535156 266c-.800781.59375-1.71875 1.089844-2.597656 1.601562.863281-.511718 1.773438-1.007812 2.597656-1.601562zm0 0"/><path d="m226.753906 210.945312c.949219-.433593 1.933594-.753906 2.917969-1.089843-.992187.3125-1.964844.675781-2.917969 1.089843zm0 0"/><path d="m232.617188 208.9375c.957031-.226562 1.933593-.34375 2.917968-.488281-.984375.144531-1.933594.261719-2.917968.488281zm0 0"/><path d="m221.457031 214c.839844-.59375 1.726563-1.089844 2.605469-1.601562-.863281.511718-1.773438 1.007812-2.605469 1.601562zm0 0"/><path d="m256.847656 212.902344c.96875.617187 1.90625 1.289062 2.800782 2.007812-.894532-.71875-1.828126-1.390625-2.800782-2.007812zm0 0"/><path d="m261.921875 216.800781c.734375.714844 1.4375 1.472657 2.09375 2.261719-.679687-.78125-1.34375-1.566406-2.09375-2.261719zm0 0"/><path d="m266 221.457031c.59375.839844 1.089844 1.726563 1.601562 2.613281-.511718-.871093-1.007812-1.78125-1.601562-2.613281zm0 0"/><path d="m245.238281 208.527344c1.019531.167968 2.007813.417968 3.007813.679687-.988282-.261719-1.972656-.511719-3.007813-.679687zm0 0"/><path d="m251.199219 210.121094c1.09375.417968 2.160156.898437 3.199219 1.429687-1.039063-.535156-2.105469-1.011719-3.199219-1.429687zm0 0"/><path d="m240 272c.359375 0 .6875-.097656 1.046875-.105469-.941406 0-1.886719 0-2.832031-.078125.601562.039063 1.167968.183594 1.785156.183594zm0 0"/><path d="m216.800781 218.078125c.714844-.730469 1.46875-1.425781 2.253907-2.078125-.773438.664062-1.558594 1.328125-2.253907 2.078125zm0 0"/><path d="m212.902344 223.144531c.621094-.96875 1.289062-1.898437 2.007812-2.792969-.714844.894532-1.386718 1.828126-2.007812 2.792969zm0 0"/><path d="m247.382812 271.0625c-.957031.226562-1.933593.34375-2.917968.488281.984375-.144531 1.933594-.261719 2.917968-.488281zm0 0"/><path d="m253.246094 269.054688c-.949219.433593-1.933594.753906-2.925782 1.089843.992188-.3125 1.972657-.675781 2.925782-1.089843zm0 0"/><path d="m210.121094 228.800781c-.351563.953125-.640625 1.941407-.914063 2.933594-.269531.992187-.511719 2.007813-.679687 3.019531-.175782 1.144532-.289063 2.296875-.34375 3.453125-.054688.945313-.113282 1.890625-.078125 2.832031.050781 1.144532.167969 2.285157.34375 3.417969.144531.984375.261719 1.957031.488281 2.917969.222656.960938.582031 1.96875.917969 2.945312.335937.976563.65625 1.96875 1.089843 2.917969.429688.953125.941407 1.800781 1.453126 2.683594.511718.878906 1.007812 1.773437 1.601562 2.613281s1.296875 1.601563 1.984375 2.402344c.65625.789062 1.359375 1.546875 2.09375 2.261719.714844.679687 1.507813 1.273437 2.273437 1.878906.894532.71875 1.828126 1.390625 2.792969 2.011719.800781.503906 1.648438.925781 2.496094 1.351562 1.039063.535156 2.105469 1.011719 3.199219 1.429688.953125.351562 1.945312.640625 2.9375.914062.992187.269532 2.007812.511719 3.015625.679688 1.144531.175781 2.296875.289062 3.453125.34375.945312.054687 1.890625.113281 2.832031.078125 1.144531-.050781 2.285156-.167969 3.417969-.34375.984375-.144531 1.960937-.261719 2.917968-.488281.996094-.253907 1.976563-.5625 2.9375-.917969.992188-.335938 1.976563-.65625 2.929688-1.089844.949219-.429687 1.796875-.949219 2.6875-1.453125.886719-.503906 1.765625-1.007812 2.597656-1.601562.832032-.59375 1.601563-1.296876 2.402344-1.984376.789062-.660156 1.546875-1.359374 2.261719-2.097656.679687-.710937 1.273437-1.496094 1.882812-2.269531.71875-.894531 1.386719-1.828125 2.007813-2.792969.503906-.800781.925781-1.648437 1.351562-2.496094.535156-1.039062 1.011719-2.109374 1.429688-3.199218.355468-.953125.640625-1.945313.914062-2.945313.273438-1 .511719-2 .679688-3.007812.175781-1.144531.289062-2.296875.34375-3.457031.054687-.941407.113281-1.886719.082031-2.832032-.054687-1.140625-.171875-2.28125-.347656-3.414062-.140625-.984375-.261719-1.960938-.484375-2.921875-.257813-.992188-.566406-1.972657-.921875-2.933594-.335938-.992187-.65625-1.976563-1.089844-2.929687-.429687-.949219-.941406-1.800782-1.453125-2.679688s-1.007812-1.773438-1.601562-2.617188c-.589844-.839843-1.296876-1.597656-1.984376-2.398437-.65625-.789063-1.355468-1.546875-2.09375-2.261719-.714843-.683594-1.496093-1.273437-2.273437-1.882812-.894531-.71875-1.832031-1.390625-2.800781-2.007813-.800782-.503906-1.597656-.925781-2.480469-1.351562-1.039063-.535157-2.105469-1.011719-3.199219-1.433594-.953125-.359375-1.945312-.636719-2.945312-.910156-1-.273438-1.988282-.511719-3.007813-.679688-1.015625-.167969-2.285156-.28125-3.453125-.351562-.945312-.046875-1.890625-.105469-2.832031-.074219-1.144531.054688-2.285156.171875-3.417969.34375-.984375.144531-1.960937.265625-2.917968.488281-.960938.226563-1.96875.585938-2.945313.921875-.976563.335938-1.96875.65625-2.917969 1.085938-.953125.433594-1.800781.945312-2.691406 1.457031-.886719.511719-1.765625 1.007813-2.605469 1.601563-.839843.589843-1.601562 1.296874-2.402343 1.984374-.789063.65625-1.546876 1.355469-2.261719 2.09375-.679688.714844-1.273438 1.496094-1.882813 2.273438-.71875.894531-1.386718 1.824219-2.007812 2.792969-.503906.796875-.925782 1.648437-1.351563 2.488281-.53125 1.042969-1.011719 2.113281-1.429687 3.207031zm0 0"/></g><path d="m240 480c-132.546875 0-240-107.453125-240-240s107.453125-240 240-240 240 107.453125 240 240c-.148438 132.484375-107.515625 239.851562-240 240zm0-464c-123.710938 0-224 100.289062-224 224s100.289062 224 224 224 224-100.289062 224-224c-.140625-123.652344-100.347656-223.859375-224-224zm0 0" fill="#1e81ce"/><path d="m413.199219 140c-2.207031-3.824219-7.101563-5.136719-10.925781-2.929688l-132.472657 76.53125-.160156-.175781c-.71875-.800781-1.410156-1.601562-2.183594-2.328125-1.050781-.964844-2.152343-1.875-3.296875-2.722656-.96875-.742188-1.929687-1.472656-2.96875-2.117188-.414062-.265624-.757812-.609374-1.191406-.859374-.734375-.421876-1.535156-.664063-2.296875-1.039063-1.136719-.589844-2.304687-1.125-3.496094-1.597656-1.308593-.484375-2.644531-.898438-4-1.242188-1.136719-.304687-2.261719-.597656-3.4375-.800781-1.515625-.242188-3.039062-.398438-4.570312-.460938-.734375-.074218-1.398438-.257812-2.199219-.257812-.390625 0-.753906.105469-1.136719.113281-1.453125.070313-2.898437.21875-4.335937.4375-1.253906.175781-2.511719.328125-3.734375.625-.378907.089844-.761719.089844-1.144531.183594-.90625.25-1.710938.671875-2.585938.976563-1.230469.425781-2.445312.800781-3.613281 1.359374-1.300781.613282-2.5625 1.296876-3.785157 2.046876-.9375.5625-1.886718 1.097656-2.777343 1.730468-1.230469.902344-2.40625 1.875-3.527344 2.910156-.800781.707032-1.597656 1.386719-2.296875 2.152344-.308594.335938-.695312.59375-1 .9375l-76.910156-44.402344c-2.476563-1.449218-5.542969-1.464843-8.03125-.035156-2.488282 1.429688-4.019532 4.085938-4.015625 6.957032.007812 2.871093 1.550781 5.515624 4.046875 6.9375l76.910156 44.40625c-.269531.800781-.359375 1.601562-.574219 2.449218-.304687 1.136719-.601562 2.261719-.800781 3.4375-.242188 1.503906-.398438 3.019532-.464844 4.539063 0 .75-.222656 1.46875-.222656 2.238281 0 .398438.105469.800781.121094 1.160156.066406 1.425782.207031 2.84375.421875 4.253906.183593 1.289063.34375 2.570313.640625 3.816407.089844.371093.082031.753906.183594 1.121093.234374.878907.65625 1.671876.953124 2.527344.398438 1.257813.859376 2.488282 1.382813 3.695313.601563 1.273437 1.273437 2.511719 2.015625 3.707031.578125.964844 1.121094 1.941406 1.769531 2.855469.890625 1.207031 1.847657 2.367187 2.863281 3.472656.71875.796875 1.425782 1.597656 2.199219 2.34375 1.039063.953125 2.128907 1.851563 3.265625 2.6875.984375.757813 1.960938 1.496094 3.015625 2.160156.40625.253907.742188.589844 1.167969.800781 1.328125.746094 2.695312 1.421876 4.097656 2.023438.148438.0625.285156.152344.4375.214844 2.191406.902344 4.460938 1.609375 6.777344 2.113281.457031.09375.902344.183594 1.359375.261719 2.390625.496094 4.824219.761718 7.265625.800781 2.414062-.027344 4.824219-.273437 7.199219-.734375.589843-.105469 1.167969-.21875 1.742187-.34375.578125-.128906.992188-.167969 1.488282-.296875.90625-.25 1.710937-.671875 2.585937-.976563 1.230469-.425781 2.445313-.800781 3.613281-1.359374 1.300782-.613282 2.5625-1.296876 3.785156-2.046876.9375-.5625 1.886719-1.097656 2.777344-1.730468 1.230469-.902344 2.40625-1.875 3.527344-2.910156.800781-.707032 1.601562-1.386719 2.296875-2.152344.972656-1.054688 1.882813-2.160156 2.734375-3.3125.738281-.96875 1.464844-1.929688 2.113281-2.960938.261719-.414062.605469-.757812.855469-1.191406.421875-.734375.664062-1.535156 1.039062-2.296875.59375-1.136719 1.125-2.304687 1.601563-3.496094.484375-1.308593.898437-2.644531 1.238281-4 .304688-1.136719.601563-2.261719.800782-3.4375.242187-1.503906.398437-3.019531.464843-4.539062 0-.75.222657-1.46875.222657-2.238281 0-.398438-.101563-.800782-.121094-1.160157-.0625-1.425781-.207032-2.847656-.421875-4.257812-.183594-1.285157-.34375-2.566407-.640625-3.8125-.085938-.371094-.078125-.753907-.183594-1.121094-.207031-.800781-.585938-1.472656-.839844-2.234375l132.480469-76.484375c3.8125-2.21875 5.109375-7.105469 2.902344-10.921875zm-149.597657 103.878906c-.128906.800782-.320312 1.601563-.53125 2.34375-.207031.746094-.414062 1.464844-.679687 2.175782-.304687.792968-.652344 1.570312-1.046875 2.320312-.335938.671875-.671875 1.34375-1.0625 1.976562-.394531.632813-.855469 1.234376-1.3125 1.832032-.5.671875-1.035156 1.320312-1.601562 1.9375-.445313.472656-.933594.894531-1.421876 1.335937-.660156.605469-1.351562 1.175781-2.074218 1.703125-.542969.390625-1.128906.71875-1.703125 1.0625-.726563.445313-1.472657.851563-2.238281 1.21875-.707032.300782-1.429688.570313-2.160157.800782-.746093.253906-1.480469.519531-2.257812.703124-.753907.164063-1.519531.289063-2.289063.375-.832031.128907-1.667968.214844-2.511718.257813-.710938 0-1.414063 0-2.125-.074219-.882813-.039062-1.761719-.125-2.632813-.261718-.722656-.121094-1.425781-.3125-2.136719-.496094-.710937-.1875-1.601562-.441406-2.328125-.730469-.726562-.289063-1.449219-.625-2.152343-.976563-.691407-.328124-1.363282-.695312-2.015626-1.09375-1.328124-.894531-2.597656-1.871093-3.800781-2.929687-.527343-.503906-1-1.054687-1.480469-1.597656-.546874-.601563-1.0625-1.226563-1.542968-1.882813-.449219-.632812-.800782-1.292968-1.207032-1.96875-.386718-.632812-.742187-1.289062-1.066406-1.957031-.335937-.769531-.628906-1.554687-.878906-2.351563-.222656-.664062-.457031-1.320312-.625-2.007812-.175781-.792969-.3125-1.59375-.40625-2.402344-.105469-.757812-.199219-1.519531-.234375-2.304687-.015625-.78125.003906-1.5625.066406-2.34375.039063-.800781.121094-1.601563.238281-2.398438.128907-.800781.320313-1.601562.527344-2.34375.210938-.746093.417969-1.472656.683594-2.175781.304688-.792969.652344-1.566406 1.039062-2.320312.34375-.671876.679688-1.34375 1.070313-1.976563.394531-.632813.855469-1.230469 1.3125-1.832031.5-.671875 1.035156-1.316406 1.601563-1.9375.445312-.46875.933593-.894532 1.421874-1.328125.65625-.609375 1.347657-1.183594 2.074219-1.710938.542969-.390625 1.125-.71875 1.703125-1.0625.726563-.445312 1.472656-.851562 2.238282-1.21875.699218-.316406 1.433593-.558593 2.160156-.796875.730468-.242187 1.402344-.480468 2.128906-.65625 1.78125-.449218 3.605469-.691406 5.441406-.722656h.207032c.070312 0 .359374.050781.542968.058594 1.699219.035156 3.386719.257812 5.03125.664062.578125.136719 1.113282.34375 1.671875.519532 1.308594.425781 2.578125.960937 3.792969 1.597656.554688.289062 1.113281.5625 1.601562.890625 1.328126.890625 2.597657 1.871093 3.800782 2.925781.527344.503906 1 1.058594 1.476562 1.601562.550782.597657 1.0625 1.226563 1.546875 1.878907.445313.632812.800781 1.304687 1.207031 1.96875.40625.664062.75 1.28125 1.0625 1.960937.339844.765625.632813 1.550782.882813 2.351563.222656.664062.453125 1.320312.621094 2.007812.175781.792969.3125 1.59375.410156 2.398438.101563.761719.199219 1.519531.230469 2.304687.019531.78125 0 1.566406-.0625 2.34375-.027344.785156-.097656 1.566406-.199219 2.34375zm0 0" fill="#1e81ce"/></svg>