<svg height="480pt" viewBox="0 0 480 480.20427" width="480pt" xmlns="http://www.w3.org/2000/svg"><path d="m288.191406 328.203125h-168.089844c-61.855468 0-112-50.144531-112-112s50.144532-112 112-112c3.957032.011719 7.90625.226563 11.839844.640625 15.722656-62.734375 75.777344-103.886719 139.957032-95.90625 64.183593 7.984375 112.328124 62.589844 112.203124 127.265625.019532 5.351563-.328124 10.699219-1.039062 16h1.039062c48.601563 0 88 39.398437 88 88s-39.398437 88-88 88zm0 0" fill="#9bc9ff"/><g fill="#1e81ce"><path d="m384.101562 336.203125h-95.464843c-4.417969 0-8-3.582031-8-8s3.582031-8 8-8h95.464843c44.183594 0 80-35.816406 80-80 0-44.179687-35.816406-80-80-80h-1.039062c-2.3125 0-4.507812-.996094-6.027344-2.738281-1.519531-1.738282-2.214844-4.050782-1.902344-6.339844.667969-4.945312.988282-9.929688.96875-14.921875.121094-60.632813-45.011718-111.832031-105.183593-119.316406-60.175781-7.484375-116.476563 31.09375-131.214844 89.910156-1.027344 3.808594-4.628906 6.335937-8.5625 6.007813-3.664063-.390626-7.351563-.589844-11.039063-.601563-57.4375 0-104 46.5625-104 104s46.5625 104 104 104h72.089844c4.417969 0 8 3.582031 8 8s-3.582031 8-8 8h-72.089844c-66.273437 0-120-53.726563-120-120s53.726563-120 120-120c1.929688 0 3.878907.058594 5.90625.160156 19.644532-64.484375 83.5625-104.84375 150.230469-94.863281s115.964844 67.292969 115.863281 134.703125c0 2.847656-.085937 5.601563-.246093 8.3125 51.347656 4.152344 90.269531 48.09375 88.1875 99.566406-2.082031 51.476563-44.421875 92.132813-95.941407 92.121094zm0 0"/><path d="m336.269531 245.050781-96.167969-96.160156-96.167968 96.160156 11.320312 11.320313 76.847656-76.855469v300.6875h16v-300.6875l76.847657 76.855469zm0 0"/></g></svg>