<svg height="480pt" viewBox="0 -40 480 480" width="480pt" xmlns="http://www.w3.org/2000/svg"><g fill="#9bc9ff"><path d="m472 8h-464v320h464zm-264 240v-160l80 80zm0 0"/><path d="m48 360c-8.835938 0-16 7.164062-16 16h32c0-8.835938-7.164062-16-16-16zm0 0"/><path d="m48 392c8.835938 0 16-7.164062 16-16h-32c0 8.835938 7.164062 16 16 16zm0 0"/></g><path d="m472 0h-464c-4.417969 0-8 3.582031-8 8v320c0 4.417969 3.582031 8 8 8h464c4.417969 0 8-3.582031 8-8v-320c0-4.417969-3.582031-8-8-8zm-8 320h-448v-304h448zm0 0" fill="#1e81ce"/><path d="m472 368h-401.472656c-3.339844-9.585938-12.378906-16.007812-22.527344-16.007812s-19.1875 6.421874-22.527344 16.007812h-17.472656c-4.417969 0-8 3.582031-8 8s3.582031 8 8 8h17.472656c3.339844 9.585938 12.378906 16.007812 22.527344 16.007812s19.1875-6.421874 22.527344-16.007812h401.472656c4.417969 0 8-3.582031 8-8s-3.582031-8-8-8zm0 0" fill="#1e81ce"/><path d="m208 256c-4.417969 0-8-3.582031-8-8v-160c0-3.234375 1.949219-6.152344 4.9375-7.390625s6.429688-.550781 8.71875 1.734375l80 80c3.121094 3.125 3.121094 8.1875 0 11.3125l-80 80c-1.5 1.5-3.535156 2.34375-5.65625 2.34375zm8-148.6875v121.375l60.6875-60.6875zm0 0" fill="#1e81ce"/></svg>