<svg height="480pt" viewBox="0 0 480 480" width="480pt" xmlns="http://www.w3.org/2000/svg"><g fill="#9bc9ff"><path d="m8 88h464v-80h-464zm424-48c4.417969 0 8 3.582031 8 8s-3.582031 8-8 8-8-3.582031-8-8 3.582031-8 8-8zm-48 0c4.417969 0 8 3.582031 8 8s-3.582031 8-8 8-8-3.582031-8-8 3.582031-8 8-8zm-48 0c4.417969 0 8 3.582031 8 8s-3.582031 8-8 8-8-3.582031-8-8 3.582031-8 8-8zm0 0"/><path d="m392 48c0 4.417969-3.582031 8-8 8s-8-3.582031-8-8 3.582031-8 8-8 8 3.582031 8 8zm0 0"/><path d="m440 48c0 4.417969-3.582031 8-8 8s-8-3.582031-8-8 3.582031-8 8-8 8 3.582031 8 8zm0 0"/><path d="m344 48c0 4.417969-3.582031 8-8 8s-8-3.582031-8-8 3.582031-8 8-8 8 3.582031 8 8zm0 0"/><path d="m440 440v-80h-45.039062c-3.726563-14.488281-9.519532-28.363281-17.199219-41.199219l31.917969-31.921875-56.558594-56.558594-31.921875 31.917969c-12.835938-7.679687-26.710938-13.472656-41.199219-17.199219v-45.039062h-80v45.039062c-14.488281 3.726563-28.363281 9.519532-41.199219 17.199219l-31.921875-31.917969-56.558594 56.558594 31.917969 31.921875c-7.679687 12.835938-13.472656 26.710938-17.199219 41.199219h-45.039062v80h45.039062c2.84375 11.089844 6.921876 21.824219 12.160157 32h79.28125c-29.933594-26.414062-40.394531-68.59375-26.273438-105.933594 14.117188-37.34375 49.871094-62.046875 89.792969-62.046875s75.675781 24.703125 89.792969 62.046875c14.121093 37.339844 3.660156 79.519532-26.273438 105.933594h79.28125c5.238281-10.175781 9.316407-20.910156 12.160157-32zm0 0"/></g><path d="m472 0h-464c-4.417969 0-8 3.582031-8 8v464c0 4.417969 3.582031 8 8 8h464c4.417969 0 8-3.582031 8-8v-464c0-4.417969-3.582031-8-8-8zm-456 16h448v64h-448zm163.574219 448c-26.207031-24.753906-34.667969-62.988281-21.347657-96.488281 13.320313-33.5 45.722657-55.488281 81.773438-55.488281s68.453125 21.988281 81.773438 55.488281c13.320312 33.5 4.859374 71.734375-21.347657 96.488281zm142.257812 0c33.453125-42.652344 28.535157-103.847656-11.300781-140.609375-39.835938-36.765625-101.226562-36.765625-141.0625 0-39.835938 36.761719-44.753906 97.957031-11.300781 140.609375h-56c-3.945313-8.347656-7.082031-17.054688-9.367188-26-.914062-3.539062-4.109375-6.007812-7.761719-6h-37.039062v-64h37.039062c3.652344 0 6.84375-2.46875 7.753907-6.007812 3.535156-13.746094 9.03125-26.910157 16.320312-39.089844 1.878907-3.144532 1.375-7.167969-1.21875-9.757813l-26.292969-26.265625 45.277344-45.277344 26.265625 26.261719c2.589844 2.585938 6.605469 3.085938 9.75 1.207031 12.1875-7.265624 25.355469-12.746093 39.097657-16.269531 3.539062-.910156 6.011718-4.105469 6.007812-7.761719v-37.039062h64v37.039062c0 3.652344 2.46875 6.84375 6.007812 7.753907 13.746094 3.535156 26.914063 9.03125 39.097657 16.3125 3.144531 1.875 7.160156 1.378906 9.75-1.210938l26.265625-26.292969 45.277344 45.277344-26.261719 26.265625c-2.59375 2.589844-3.09375 6.613281-1.214844 9.757813 7.285156 12.179687 12.78125 25.34375 16.316406 39.089844.910157 3.527343 4.082031 5.996093 7.722657 6.007812h37.039062v64h-37.039062c-3.652344-.003906-6.839844 2.464844-7.753907 6-2.289062 8.945312-5.429687 17.652344-9.375 26zm142.167969 0h-68.753906c2.210937-5.230469 4.144531-10.570312 5.792968-16h38.960938c4.417969 0 8-3.582031 8-8v-80c0-4.417969-3.582031-8-8-8h-38.953125c-3.300781-11.0625-7.761719-21.742188-13.3125-31.863281l27.601563-27.601563c3.125-3.125 3.125-8.1875 0-11.3125l-56.558594-56.558594c-3.175782-3-8.140625-3-11.3125 0l-27.601563 27.601563c-10.121093-5.546875-20.800781-10.007813-31.863281-13.304687v-38.960938c0-4.417969-3.582031-8-8-8h-80c-4.417969 0-8 3.582031-8 8v38.960938c-11.0625 3.296874-21.742188 7.757812-31.863281 13.304687l-27.601563-27.601563c-3.125-3.125-8.1875-3.125-11.3125 0l-56.558594 56.558594c-3.125 3.125-3.125 8.1875 0 11.3125l27.601563 27.601563c-5.550781 10.121093-10.011719 20.800781-13.3125 31.863281h-38.953125c-4.417969 0-8 3.582031-8 8v80c0 4.417969 3.582031 8 8 8h38.960938c1.648437 5.429688 3.582031 10.769531 5.792968 16h-68.753906v-368h448zm0 0" fill="#1e81ce"/><path d="m400 48c0 8.835938-7.164062 16-16 16s-16-7.164062-16-16 7.164062-16 16-16 16 7.164062 16 16zm0 0" fill="#1e81ce"/><path d="m448 48c0 8.835938-7.164062 16-16 16s-16-7.164062-16-16 7.164062-16 16-16 16 7.164062 16 16zm0 0" fill="#1e81ce"/><path d="m352 48c0 8.835938-7.164062 16-16 16s-16-7.164062-16-16 7.164062-16 16-16 16 7.164062 16 16zm0 0" fill="#1e81ce"/></svg>